<svg width="180" height="210" viewBox="0 0 180 210" fill="none" xmlns="http://www.w3.org/2000/svg">
<path d="M90 0L180 53L90 105V0Z" fill="url(#paint0_linear_6_3)"/>
<path d="M180 53V157L90 105L180 53Z" fill="url(#paint1_linear_6_3)"/>
<path d="M180 157L90 210V105L180 157Z" fill="url(#paint2_linear_6_3)"/>
<path d="M90 210L0 157L90 105V210Z" fill="url(#paint3_linear_6_3)"/>
<path d="M0 157V53L90 105L0 157Z" fill="url(#paint4_linear_6_3)"/>
<path d="M0 53L90 0V105L0 53Z" fill="url(#paint5_linear_6_3)"/>
<path d="M0 53L90 0L180 53L90 105L0 53Z" fill="url(#paint6_linear_6_3)"/>
<defs>
<linearGradient id="paint0_linear_6_3" x1="108" y1="-1.34557e-06" x2="175.087" y2="95.8389" gradientUnits="userSpaceOnUse">
<stop stop-color="white"/>
<stop offset="0.25" stop-color="#D4D0F8"/>
<stop offset="0.6" stop-color="#7B74D4"/>
<stop offset="1" stop-color="#534AB7"/>
</linearGradient>
<linearGradient id="paint1_linear_6_3" x1="90" y1="53" x2="192.922" y2="142.067" gradientUnits="userSpaceOnUse">
<stop stop-color="#7B74D4"/>
<stop offset="0.3" stop-color="#534AB7"/>
<stop offset="1" stop-color="#1A1A2E"/>
</linearGradient>
<linearGradient id="paint2_linear_6_3" x1="90" y1="105" x2="147.124" y2="202.927" gradientUnits="userSpaceOnUse">
<stop stop-color="#534AB7"/>
<stop offset="0.5" stop-color="#26215C"/>
<stop offset="1" stop-color="#0A0F2E"/>
</linearGradient>
<linearGradient id="paint3_linear_6_3" x1="72" y1="105" x2="4.91275" y2="200.839" gradientUnits="userSpaceOnUse">
<stop stop-color="#26215C"/>
<stop offset="0.6" stop-color="#0F0F1A"/>
<stop offset="1" stop-color="#09090F"/>
</linearGradient>
<linearGradient id="paint4_linear_6_3" x1="90" y1="53" x2="-12.9224" y2="142.067" gradientUnits="userSpaceOnUse">
<stop stop-color="#3D3890"/>
<stop offset="0.4" stop-color="#1A1A2E"/>
<stop offset="1" stop-color="#0A0F2E"/>
</linearGradient>
<linearGradient id="paint5_linear_6_3" x1="72" y1="-2.12789e-06" x2="4.91275" y2="95.8389" gradientUnits="userSpaceOnUse">
<stop stop-color="#E8E8F0"/>
<stop offset="0.3" stop-color="#AFA9EC"/>
<stop offset="0.7" stop-color="#6B63CC"/>
<stop offset="1" stop-color="#534AB7"/>
</linearGradient>
<linearGradient id="paint6_linear_6_3" x1="0" y1="0" x2="0" y2="105" gradientUnits="userSpaceOnUse">
<stop stop-color="white" stop-opacity="0.15"/>
<stop offset="1" stop-color="white" stop-opacity="0"/>
</linearGradient>
</defs>
</svg>
