<svg width="180" height="210" viewBox="0 0 180 210" fill="none" xmlns="http://www.w3.org/2000/svg">
<path d="M90 0L180 53L90 105V0Z" fill="url(#paint0_linear_6_5)"/>
<path d="M180 53V157L90 105L180 53Z" fill="url(#paint1_linear_6_5)"/>
<path d="M180 157L90 210V105L180 157Z" fill="url(#paint2_linear_6_5)"/>
<path d="M90 210L0 157L90 105V210Z" fill="url(#paint3_linear_6_5)"/>
<path d="M0 157V53L90 105L0 157Z" fill="url(#paint4_linear_6_5)"/>
<path d="M0 53L90 0V105L0 53Z" fill="url(#paint5_linear_6_5)"/>
<path d="M0 53L90 0L180 53L90 105L0 53Z" fill="url(#paint6_linear_6_5)"/>
<defs>
<linearGradient id="paint0_linear_6_5" x1="108" y1="-1.34557e-06" x2="175.087" y2="95.8389" gradientUnits="userSpaceOnUse">
<stop stop-color="white"/>
<stop offset="0.3" stop-color="#E0E0E0"/>
<stop offset="1" stop-color="#9E9E9E"/>
</linearGradient>
<linearGradient id="paint1_linear_6_5" x1="90" y1="53" x2="192.922" y2="142.067" gradientUnits="userSpaceOnUse">
<stop stop-color="#9E9E9E"/>
<stop offset="0.5" stop-color="#757575"/>
<stop offset="1" stop-color="#424242"/>
</linearGradient>
<linearGradient id="paint2_linear_6_5" x1="90" y1="105" x2="147.124" y2="202.927" gradientUnits="userSpaceOnUse">
<stop stop-color="#757575"/>
<stop offset="0.6" stop-color="#424242"/>
<stop offset="1" stop-color="#212121"/>
</linearGradient>
<linearGradient id="paint3_linear_6_5" x1="72" y1="105" x2="4.91275" y2="200.839" gradientUnits="userSpaceOnUse">
<stop stop-color="#424242"/>
<stop offset="0.6" stop-color="#212121"/>
<stop offset="1" stop-color="#121212"/>
</linearGradient>
<linearGradient id="paint4_linear_6_5" x1="90" y1="53" x2="-12.9224" y2="142.067" gradientUnits="userSpaceOnUse">
<stop stop-color="#616161"/>
<stop offset="0.5" stop-color="#303030"/>
<stop offset="1" stop-color="#121212"/>
</linearGradient>
<linearGradient id="paint5_linear_6_5" x1="72" y1="-2.12789e-06" x2="4.91275" y2="95.8389" gradientUnits="userSpaceOnUse">
<stop stop-color="#F0F0F0"/>
<stop offset="0.5" stop-color="#BDBDBD"/>
<stop offset="1" stop-color="#9E9E9E"/>
</linearGradient>
<linearGradient id="paint6_linear_6_5" x1="0" y1="0" x2="0" y2="105" gradientUnits="userSpaceOnUse">
<stop stop-color="white" stop-opacity="0.3"/>
<stop offset="1" stop-color="white" stop-opacity="0"/>
</linearGradient>
</defs>
</svg>
