<svg width="180" height="223" viewBox="0 0 180 223" fill="none" xmlns="http://www.w3.org/2000/svg">
<path d="M90 0L157.5 39.119L90 77.5V0Z" fill="url(#paint0_linear_11_95)"/>
<path d="M157.5 39.119V115.881L90 77.5L157.5 39.119Z" fill="url(#paint1_linear_11_95)"/>
<path d="M157.5 115.881L90 155V77.5L157.5 115.881Z" fill="url(#paint2_linear_11_95)"/>
<path d="M90 155L22.5 115.881L90 77.5V155Z" fill="url(#paint3_linear_11_95)"/>
<path d="M22.5 115.881V39.119L90 77.5L22.5 115.881Z" fill="url(#paint4_linear_11_95)"/>
<path d="M22.5 39.119L90 0V77.5L22.5 39.119Z" fill="url(#paint5_linear_11_95)"/>
<path d="M22.5 39.119L90 0L157.5 39.119L90 77.5L22.5 39.119Z" fill="url(#paint6_linear_11_95)"/>
<path d="M39.8904 187.04L38.6304 187.55V171.59H42.6204V191H38.6304L22.9404 175.67L24.2004 175.16V191H20.2104V171.59H24.2004L39.8904 187.04ZM51.2414 182.9V187.67H66.2114V191H47.2514V171.59H66.1814V174.92H51.2414V179.75H63.4814V182.9H51.2414ZM70.308 191V171.59H81.498C84.098 171.59 86.068 172.03 87.408 172.91C88.768 173.77 89.448 175.06 89.448 176.78C89.448 177.88 89.178 178.75 88.638 179.39C88.098 180.01 87.328 180.47 86.328 180.77C85.348 181.07 84.188 181.26 82.848 181.34L82.968 181.13C83.948 181.15 84.868 181.22 85.728 181.34C86.608 181.46 87.378 181.68 88.038 182C88.698 182.32 89.218 182.77 89.598 183.35C89.978 183.91 90.168 184.65 90.168 185.57C90.168 186.77 89.848 187.77 89.208 188.57C88.568 189.35 87.678 189.94 86.538 190.34C85.398 190.74 84.078 190.96 82.578 191H70.308ZM74.298 187.7H82.158C83.418 187.7 84.388 187.5 85.068 187.1C85.748 186.68 86.088 186.02 86.088 185.12C86.088 184.46 85.888 183.98 85.488 183.68C85.088 183.38 84.558 183.2 83.898 183.14C83.238 183.06 82.528 183.02 81.768 183.02H74.298V187.7ZM74.298 179.81H81.348C82.608 179.81 83.578 179.63 84.258 179.27C84.938 178.89 85.278 178.25 85.278 177.35C85.278 176.45 84.938 175.82 84.258 175.46C83.578 175.08 82.678 174.89 81.558 174.89H74.298V179.81ZM111.536 182.42V171.59H115.526V182.84C115.526 184.12 115.336 185.24 114.956 186.2C114.596 187.16 114.076 187.97 113.396 188.63C112.716 189.29 111.916 189.83 110.996 190.25C110.096 190.65 109.106 190.94 108.026 191.12C106.966 191.3 105.846 191.39 104.666 191.39C103.446 191.39 102.286 191.3 101.186 191.12C100.086 190.94 99.0763 190.65 98.1563 190.25C97.2563 189.83 96.4763 189.29 95.8162 188.63C95.1563 187.97 94.6363 187.16 94.2563 186.2C93.8963 185.24 93.7163 184.12 93.7163 182.84V171.59H97.7063V182.42C97.7063 183.94 98.0063 185.1 98.6063 185.9C99.2063 186.68 100.026 187.22 101.066 187.52C102.126 187.8 103.326 187.94 104.666 187.94C105.966 187.94 107.126 187.8 108.146 187.52C109.186 187.22 110.006 186.68 110.606 185.9C111.226 185.1 111.536 183.94 111.536 182.42ZM124.132 171.59V187.67H137.032V191H120.142V171.59H124.132ZM143.768 186.77V183.44H156.608V186.77H143.768ZM138.938 191L148.058 171.59H152.378L161.588 191H157.238L149.258 173.51H151.178L143.258 191H138.938Z" fill="url(#paint7_linear_11_95)"/>
<path d="M37.1228 203.545C37.0825 203.141 36.9038 202.819 36.5866 202.58C36.2693 202.34 35.8704 202.221 35.3898 202.221C35.0513 202.221 34.753 202.279 34.4949 202.395C34.2393 202.511 34.038 202.672 33.8912 202.878C33.7468 203.081 33.6746 203.313 33.6746 203.574C33.6746 203.766 33.7161 203.934 33.7989 204.078C33.8818 204.223 33.993 204.347 34.1327 204.451C34.2748 204.553 34.431 204.64 34.6015 204.714C34.7743 204.787 34.9483 204.849 35.1235 204.898L35.8905 205.119C36.1225 205.183 36.3546 205.264 36.5866 205.364C36.8186 205.463 37.0305 205.589 37.2222 205.74C37.4163 205.889 37.5714 206.073 37.6874 206.29C37.8058 206.506 37.865 206.765 37.865 207.068C37.865 207.456 37.7644 207.806 37.5631 208.116C37.3619 208.426 37.0731 208.672 36.6966 208.854C36.3202 209.034 35.8692 209.124 35.3437 209.124C34.8489 209.124 34.4192 209.043 34.0546 208.879C33.69 208.714 33.4036 208.485 33.1952 208.194C32.9869 207.903 32.8697 207.565 32.8437 207.182H33.5255C33.5492 207.468 33.6439 207.711 33.8096 207.91C33.9753 208.109 34.1907 208.26 34.4559 208.364C34.721 208.466 35.017 208.517 35.3437 208.517C35.7059 208.517 36.0278 208.457 36.3096 208.336C36.5937 208.213 36.8162 208.042 36.9772 207.825C37.1405 207.604 37.2222 207.349 37.2222 207.058C37.2222 206.811 37.1583 206.605 37.0305 206.44C36.9026 206.272 36.7239 206.131 36.4942 206.017C36.267 205.903 36.003 205.803 35.7023 205.715L34.8323 205.46C34.2617 205.289 33.819 205.054 33.5042 204.753C33.1893 204.452 33.0319 204.069 33.0319 203.602C33.0319 203.212 33.136 202.868 33.3444 202.572C33.5551 202.274 33.8392 202.042 34.1966 201.876C34.5565 201.708 34.9601 201.624 35.4076 201.624C35.8598 201.624 36.2599 201.707 36.6079 201.873C36.9559 202.039 37.2317 202.267 37.4353 202.558C37.6412 202.847 37.7513 203.176 37.7655 203.545H37.1228ZM53.4253 205.364C53.4253 206.121 53.2904 206.781 53.0205 207.342C52.7506 207.9 52.3789 208.334 51.9055 208.641C51.4343 208.947 50.8922 209.099 50.279 209.099C49.6659 209.099 49.1225 208.947 48.6491 208.641C48.1779 208.334 47.8074 207.9 47.5376 207.342C47.27 206.781 47.1363 206.121 47.1363 205.364C47.1363 204.606 47.27 203.948 47.5376 203.389C47.8074 202.828 48.1791 202.395 48.6526 202.089C49.1261 201.782 49.6682 201.628 50.279 201.628C50.8922 201.628 51.4343 201.782 51.9055 202.089C52.3789 202.395 52.7506 202.828 53.0205 203.389C53.2904 203.948 53.4253 204.606 53.4253 205.364ZM52.779 205.364C52.779 204.713 52.6701 204.155 52.4523 203.691C52.2345 203.225 51.9374 202.868 51.561 202.622C51.1846 202.376 50.7573 202.253 50.279 202.253C49.8032 202.253 49.377 202.376 49.0006 202.622C48.6242 202.868 48.3259 203.223 48.1057 203.688C47.8879 204.152 47.779 204.71 47.779 205.364C47.779 206.015 47.8879 206.572 48.1057 207.036C48.3235 207.5 48.6206 207.857 48.9971 208.105C49.3735 208.351 49.8008 208.474 50.279 208.474C50.7573 208.474 51.1846 208.351 51.561 208.105C51.9398 207.859 52.2381 207.504 52.4559 207.04C52.6737 206.573 52.7814 206.015 52.779 205.364ZM63.0313 209V201.727H67.2394V202.324H63.6954V205.062H66.9092V205.658H63.6954V209H63.0313ZM76.4504 202.324V201.727H81.7238V202.324H79.4191V209H78.7551V202.324H76.4504ZM92.483 209L90.4909 201.727H91.1656L92.8133 207.981H92.8701L94.5178 201.727H95.2849L96.9326 207.981H96.9894L98.6372 201.727H99.3154L97.3232 209H96.613L94.9262 202.832H94.8801L93.1933 209H92.483ZM107.96 209H107.264L109.91 201.727H110.62L113.265 209H112.569L110.29 202.59H110.24L107.96 209ZM108.461 206.212H112.069V206.809H108.461V206.212ZM122.512 209V201.727H124.859C125.375 201.727 125.806 201.821 126.152 202.008C126.5 202.192 126.761 202.449 126.937 202.778C127.114 203.105 127.203 203.48 127.203 203.904C127.203 204.328 127.114 204.702 126.937 205.026C126.761 205.351 126.501 205.604 126.155 205.786C125.81 205.969 125.381 206.06 124.87 206.06H122.87V205.452H124.852C125.231 205.452 125.546 205.39 125.797 205.264C126.05 205.139 126.238 204.96 126.361 204.728C126.487 204.496 126.549 204.221 126.549 203.904C126.549 203.587 126.487 203.31 126.361 203.073C126.236 202.834 126.046 202.649 125.793 202.519C125.542 202.389 125.225 202.324 124.841 202.324H123.176V209H122.512ZM125.718 205.719L127.508 209H126.741L124.969 205.719H125.718ZM136.82 209V201.727H141.039V202.324H137.484V205.062H140.815V205.658H137.484V208.403H141.11V209H136.82ZM50.0691 215.545C50.0288 215.141 49.8501 214.819 49.5328 214.58C49.2156 214.34 48.8167 214.221 48.3361 214.221C47.9976 214.221 47.6993 214.279 47.4412 214.395C47.1855 214.511 46.9843 214.672 46.8375 214.878C46.6931 215.081 46.6209 215.313 46.6209 215.574C46.6209 215.766 46.6623 215.934 46.7452 216.078C46.8281 216.223 46.9393 216.347 47.079 216.451C47.2211 216.553 47.3773 216.64 47.5478 216.714C47.7206 216.787 47.8946 216.849 48.0698 216.898L48.8368 217.119C49.0688 217.183 49.3008 217.264 49.5328 217.364C49.7649 217.463 49.9767 217.589 50.1685 217.74C50.3626 217.889 50.5177 218.073 50.6337 218.29C50.7521 218.506 50.8113 218.765 50.8113 219.068C50.8113 219.456 50.7106 219.806 50.5094 220.116C50.3082 220.426 50.0194 220.672 49.6429 220.854C49.2665 221.034 48.8155 221.124 48.29 221.124C47.7952 221.124 47.3655 221.043 47.0009 220.879C46.6363 220.714 46.3498 220.485 46.1415 220.194C45.9332 219.903 45.816 219.565 45.79 219.182H46.4718C46.4954 219.468 46.5901 219.711 46.7559 219.91C46.9216 220.109 47.137 220.26 47.4022 220.364C47.6673 220.466 47.9632 220.517 48.29 220.517C48.6522 220.517 48.9741 220.457 49.2559 220.336C49.54 220.213 49.7625 220.042 49.9235 219.825C50.0868 219.604 50.1685 219.349 50.1685 219.058C50.1685 218.811 50.1046 218.605 49.9767 218.44C49.8489 218.272 49.6702 218.131 49.4405 218.017C49.2132 217.903 48.9493 217.803 48.6486 217.715L47.7786 217.46C47.208 217.289 46.7653 217.054 46.4505 216.753C46.1356 216.452 45.9782 216.069 45.9782 215.602C45.9782 215.212 46.0823 214.868 46.2907 214.572C46.5014 214.274 46.7855 214.042 47.1429 213.876C47.5028 213.708 47.9064 213.624 48.3539 213.624C48.806 213.624 49.2061 213.707 49.5542 213.873C49.9022 214.039 50.178 214.267 50.3816 214.558C50.5875 214.847 50.6976 215.176 50.7118 215.545H50.0691ZM59.9689 214.324V213.727H65.2424V214.324H62.9377V221H62.2736V214.324H59.9689ZM79.5847 213.727H80.2488V218.543C80.2488 219.037 80.1328 219.48 79.9007 219.871C79.6687 220.259 79.3456 220.566 78.9313 220.79C78.5194 221.013 78.04 221.124 77.4931 221.124C76.9486 221.124 76.4692 221.012 76.0549 220.787C75.6406 220.562 75.3174 220.255 75.0854 219.867C74.8534 219.479 74.7374 219.037 74.7374 218.543V213.727H75.4015V218.496C75.4015 218.882 75.4879 219.227 75.6607 219.53C75.8335 219.83 76.0762 220.067 76.3887 220.24C76.7035 220.413 77.0717 220.499 77.4931 220.499C77.9145 220.499 78.2826 220.413 78.5975 220.24C78.9123 220.067 79.155 219.83 79.3255 219.53C79.4983 219.227 79.5847 218.882 79.5847 218.496V213.727ZM92.3095 221H90.1788V213.727H92.4373C93.131 213.727 93.724 213.872 94.2164 214.161C94.7112 214.449 95.09 214.864 95.3528 215.403C95.6156 215.943 95.747 216.591 95.747 217.346C95.747 218.108 95.612 218.763 95.3422 219.31C95.0746 219.854 94.684 220.272 94.1703 220.563C93.6589 220.854 93.0386 221 92.3095 221ZM90.8429 220.403H92.2704C92.8954 220.403 93.4186 220.28 93.84 220.034C94.2614 219.788 94.5775 219.436 94.7882 218.979C94.9989 218.522 95.1042 217.978 95.1042 217.346C95.1019 216.719 94.9977 216.179 94.7917 215.727C94.5881 215.274 94.2851 214.928 93.8826 214.686C93.4825 214.445 92.9877 214.324 92.3983 214.324H90.8429V220.403ZM106.021 213.727V221H105.357V213.727H106.021ZM121.917 217.364C121.917 218.121 121.782 218.781 121.512 219.342C121.242 219.9 120.87 220.334 120.397 220.641C119.926 220.947 119.383 221.099 118.77 221.099C118.157 221.099 117.614 220.947 117.14 220.641C116.669 220.334 116.299 219.9 116.029 219.342C115.761 218.781 115.627 218.121 115.627 217.364C115.627 216.606 115.761 215.948 116.029 215.389C116.299 214.828 116.67 214.395 117.144 214.089C117.617 213.782 118.159 213.628 118.77 213.628C119.383 213.628 119.926 213.782 120.397 214.089C120.87 214.395 121.242 214.828 121.512 215.389C121.782 215.948 121.917 216.606 121.917 217.364ZM121.27 217.364C121.27 216.713 121.161 216.155 120.944 215.691C120.726 215.225 120.429 214.868 120.052 214.622C119.676 214.376 119.248 214.253 118.77 214.253C118.294 214.253 117.868 214.376 117.492 214.622C117.115 214.868 116.817 215.223 116.597 215.688C116.379 216.152 116.27 216.71 116.27 217.364C116.27 218.015 116.379 218.572 116.597 219.036C116.815 219.5 117.112 219.857 117.488 220.105C117.865 220.351 118.292 220.474 118.77 220.474C119.248 220.474 119.676 220.351 120.052 220.105C120.431 219.859 120.729 219.504 120.947 219.04C121.165 218.573 121.273 218.015 121.27 217.364ZM135.471 215.545C135.431 215.141 135.252 214.819 134.935 214.58C134.618 214.34 134.219 214.221 133.738 214.221C133.4 214.221 133.102 214.279 132.844 214.395C132.588 214.511 132.387 214.672 132.24 214.878C132.095 215.081 132.023 215.313 132.023 215.574C132.023 215.766 132.065 215.934 132.148 216.078C132.23 216.223 132.342 216.347 132.481 216.451C132.623 216.553 132.78 216.64 132.95 216.714C133.123 216.787 133.297 216.849 133.472 216.898L134.239 217.119C134.471 217.183 134.703 217.264 134.935 217.364C135.167 217.463 135.379 217.589 135.571 217.74C135.765 217.889 135.92 218.073 136.036 218.29C136.154 218.506 136.214 218.765 136.214 219.068C136.214 219.456 136.113 219.806 135.912 220.116C135.711 220.426 135.422 220.672 135.045 220.854C134.669 221.034 134.218 221.124 133.692 221.124C133.198 221.124 132.768 221.043 132.403 220.879C132.039 220.714 131.752 220.485 131.544 220.194C131.336 219.903 131.218 219.565 131.192 219.182H131.874C131.898 219.468 131.992 219.711 132.158 219.91C132.324 220.109 132.539 220.26 132.805 220.364C133.07 220.466 133.366 220.517 133.692 220.517C134.055 220.517 134.376 220.457 134.658 220.336C134.942 220.213 135.165 220.042 135.326 219.825C135.489 219.604 135.571 219.349 135.571 219.058C135.571 218.811 135.507 218.605 135.379 218.44C135.251 218.272 135.073 218.131 134.843 218.017C134.616 217.903 134.352 217.803 134.051 217.715L133.181 217.46C132.61 217.289 132.168 217.054 131.853 216.753C131.538 216.452 131.381 216.069 131.381 215.602C131.381 215.212 131.485 214.868 131.693 214.572C131.904 214.274 132.188 214.042 132.545 213.876C132.905 213.708 133.309 213.624 133.756 213.624C134.208 213.624 134.608 213.707 134.956 213.873C135.305 214.039 135.58 214.267 135.784 214.558C135.99 214.847 136.1 215.176 136.114 215.545H135.471Z" fill="#9E9E9E"/>
<defs>
<linearGradient id="paint0_linear_11_95" x1="103.5" y1="-9.93162e-07" x2="152.741" y2="71.4786" gradientUnits="userSpaceOnUse">
<stop stop-color="white"/>
<stop offset="0.3" stop-color="#E0E0E0"/>
<stop offset="1" stop-color="#9E9E9E"/>
</linearGradient>
<linearGradient id="paint1_linear_11_95" x1="90" y1="39.119" x2="166.132" y2="106.065" gradientUnits="userSpaceOnUse">
<stop stop-color="#9E9E9E"/>
<stop offset="0.5" stop-color="#757575"/>
<stop offset="1" stop-color="#424242"/>
</linearGradient>
<linearGradient id="paint2_linear_11_95" x1="90" y1="77.5" x2="131.828" y2="150.362" gradientUnits="userSpaceOnUse">
<stop stop-color="#757575"/>
<stop offset="0.6" stop-color="#424242"/>
<stop offset="1" stop-color="#212121"/>
</linearGradient>
<linearGradient id="paint3_linear_11_95" x1="76.5" y1="77.5" x2="27.2592" y2="148.979" gradientUnits="userSpaceOnUse">
<stop stop-color="#424242"/>
<stop offset="0.6" stop-color="#212121"/>
<stop offset="1" stop-color="#121212"/>
</linearGradient>
<linearGradient id="paint4_linear_11_95" x1="90" y1="39.119" x2="13.8683" y2="106.065" gradientUnits="userSpaceOnUse">
<stop stop-color="#616161"/>
<stop offset="0.5" stop-color="#303030"/>
<stop offset="1" stop-color="#121212"/>
</linearGradient>
<linearGradient id="paint5_linear_11_95" x1="76.5" y1="-1.57058e-06" x2="27.2592" y2="71.4786" gradientUnits="userSpaceOnUse">
<stop stop-color="#F0F0F0"/>
<stop offset="0.5" stop-color="#BDBDBD"/>
<stop offset="1" stop-color="#9E9E9E"/>
</linearGradient>
<linearGradient id="paint6_linear_11_95" x1="22.5" y1="0" x2="22.5" y2="77.5" gradientUnits="userSpaceOnUse">
<stop stop-color="white" stop-opacity="0.3"/>
<stop offset="1" stop-color="white" stop-opacity="0"/>
</linearGradient>
<linearGradient id="paint7_linear_11_95" x1="90" y1="142.5" x2="90" y2="216.5" gradientUnits="userSpaceOnUse">
<stop stop-color="white"/>
<stop offset="0.396473" stop-color="#E8E8F0"/>
<stop offset="1" stop-color="#9E9E9E"/>
</linearGradient>
</defs>
</svg>
