<svg width="180" height="223" viewBox="0 0 180 223" fill="none" xmlns="http://www.w3.org/2000/svg">
<path d="M90 0L157.5 39.119L90 77.5V0Z" fill="url(#paint0_linear_11_81)"/>
<path d="M157.5 39.119V115.881L90 77.5L157.5 39.119Z" fill="url(#paint1_linear_11_81)"/>
<path d="M157.5 115.881L90 155V77.5L157.5 115.881Z" fill="url(#paint2_linear_11_81)"/>
<path d="M90 155L22.5 115.881L90 77.5V155Z" fill="url(#paint3_linear_11_81)"/>
<path d="M22.5 115.881V39.119L90 77.5L22.5 115.881Z" fill="url(#paint4_linear_11_81)"/>
<path d="M22.5 39.119L90 0V77.5L22.5 39.119Z" fill="url(#paint5_linear_11_81)"/>
<path d="M22.5 39.119L90 0L157.5 39.119L90 77.5L22.5 39.119Z" fill="url(#paint6_linear_11_81)"/>
<path d="M39.8904 187.04L38.6304 187.55V171.59H42.6204V191H38.6304L22.9404 175.67L24.2004 175.16V191H20.2104V171.59H24.2004L39.8904 187.04ZM51.2414 182.9V187.67H66.2114V191H47.2514V171.59H66.1814V174.92H51.2414V179.75H63.4814V182.9H51.2414ZM70.308 191V171.59H81.498C84.098 171.59 86.068 172.03 87.408 172.91C88.768 173.77 89.448 175.06 89.448 176.78C89.448 177.88 89.178 178.75 88.638 179.39C88.098 180.01 87.328 180.47 86.328 180.77C85.348 181.07 84.188 181.26 82.848 181.34L82.968 181.13C83.948 181.15 84.868 181.22 85.728 181.34C86.608 181.46 87.378 181.68 88.038 182C88.698 182.32 89.218 182.77 89.598 183.35C89.978 183.91 90.168 184.65 90.168 185.57C90.168 186.77 89.848 187.77 89.208 188.57C88.568 189.35 87.678 189.94 86.538 190.34C85.398 190.74 84.078 190.96 82.578 191H70.308ZM74.298 187.7H82.158C83.418 187.7 84.388 187.5 85.068 187.1C85.748 186.68 86.088 186.02 86.088 185.12C86.088 184.46 85.888 183.98 85.488 183.68C85.088 183.38 84.558 183.2 83.898 183.14C83.238 183.06 82.528 183.02 81.768 183.02H74.298V187.7ZM74.298 179.81H81.348C82.608 179.81 83.578 179.63 84.258 179.27C84.938 178.89 85.278 178.25 85.278 177.35C85.278 176.45 84.938 175.82 84.258 175.46C83.578 175.08 82.678 174.89 81.558 174.89H74.298V179.81ZM111.536 182.42V171.59H115.526V182.84C115.526 184.12 115.336 185.24 114.956 186.2C114.596 187.16 114.076 187.97 113.396 188.63C112.716 189.29 111.916 189.83 110.996 190.25C110.096 190.65 109.106 190.94 108.026 191.12C106.966 191.3 105.846 191.39 104.666 191.39C103.446 191.39 102.286 191.3 101.186 191.12C100.086 190.94 99.0763 190.65 98.1563 190.25C97.2563 189.83 96.4763 189.29 95.8162 188.63C95.1563 187.97 94.6363 187.16 94.2563 186.2C93.8963 185.24 93.7163 184.12 93.7163 182.84V171.59H97.7063V182.42C97.7063 183.94 98.0063 185.1 98.6063 185.9C99.2063 186.68 100.026 187.22 101.066 187.52C102.126 187.8 103.326 187.94 104.666 187.94C105.966 187.94 107.126 187.8 108.146 187.52C109.186 187.22 110.006 186.68 110.606 185.9C111.226 185.1 111.536 183.94 111.536 182.42ZM124.132 171.59V187.67H137.032V191H120.142V171.59H124.132ZM143.768 186.77V183.44H156.608V186.77H143.768ZM138.938 191L148.058 171.59H152.378L161.588 191H157.238L149.258 173.51H151.178L143.258 191H138.938Z" fill="url(#paint7_linear_11_81)"/>
<path d="M36.1228 203.295C36.0825 202.891 35.9038 202.569 35.5866 202.33C35.2693 202.09 34.8704 201.971 34.3898 201.971C34.0513 201.971 33.753 202.029 33.4949 202.145C33.2393 202.261 33.038 202.422 32.8912 202.628C32.7468 202.831 32.6746 203.063 32.6746 203.324C32.6746 203.516 32.7161 203.684 32.7989 203.828C32.8818 203.973 32.993 204.097 33.1327 204.201C33.2748 204.303 33.431 204.39 33.6015 204.464C33.7743 204.537 33.9483 204.599 34.1235 204.648L34.8905 204.869C35.1225 204.933 35.3546 205.014 35.5866 205.114C35.8186 205.213 36.0305 205.339 36.2222 205.49C36.4163 205.639 36.5714 205.823 36.6874 206.04C36.8058 206.256 36.865 206.515 36.865 206.818C36.865 207.206 36.7644 207.556 36.5631 207.866C36.3619 208.176 36.0731 208.422 35.6966 208.604C35.3202 208.784 34.8692 208.874 34.3437 208.874C33.8489 208.874 33.4192 208.793 33.0546 208.629C32.69 208.464 32.4036 208.235 32.1952 207.944C31.9869 207.653 31.8697 207.315 31.8437 206.932H32.5255C32.5492 207.218 32.6439 207.461 32.8096 207.66C32.9753 207.859 33.1907 208.01 33.4559 208.114C33.721 208.216 34.017 208.267 34.3437 208.267C34.7059 208.267 35.0278 208.207 35.3096 208.086C35.5937 207.963 35.8162 207.792 35.9772 207.575C36.1405 207.354 36.2222 207.099 36.2222 206.808C36.2222 206.561 36.1583 206.355 36.0305 206.19C35.9026 206.022 35.7239 205.881 35.4942 205.767C35.267 205.653 35.003 205.553 34.7023 205.465L33.8323 205.21C33.2617 205.039 32.819 204.804 32.5042 204.503C32.1893 204.202 32.0319 203.819 32.0319 203.352C32.0319 202.962 32.136 202.618 32.3444 202.322C32.5551 202.024 32.8392 201.792 33.1966 201.626C33.5565 201.458 33.9601 201.374 34.4076 201.374C34.8598 201.374 35.2599 201.457 35.6079 201.623C35.9559 201.789 36.2317 202.017 36.4353 202.308C36.6412 202.597 36.7513 202.926 36.7655 203.295H36.1228ZM52.4253 205.114C52.4253 205.871 52.2904 206.531 52.0205 207.092C51.7506 207.65 51.3789 208.084 50.9055 208.391C50.4343 208.697 49.8922 208.849 49.279 208.849C48.6659 208.849 48.1225 208.697 47.6491 208.391C47.1779 208.084 46.8074 207.65 46.5376 207.092C46.27 206.531 46.1363 205.871 46.1363 205.114C46.1363 204.356 46.27 203.698 46.5376 203.139C46.8074 202.578 47.1791 202.145 47.6526 201.839C48.1261 201.532 48.6682 201.378 49.279 201.378C49.8922 201.378 50.4343 201.532 50.9055 201.839C51.3789 202.145 51.7506 202.578 52.0205 203.139C52.2904 203.698 52.4253 204.356 52.4253 205.114ZM51.779 205.114C51.779 204.463 51.6701 203.905 51.4523 203.441C51.2345 202.975 50.9374 202.618 50.561 202.372C50.1846 202.126 49.7573 202.003 49.279 202.003C48.8032 202.003 48.377 202.126 48.0006 202.372C47.6242 202.618 47.3259 202.973 47.1057 203.438C46.8879 203.902 46.779 204.46 46.779 205.114C46.779 205.765 46.8879 206.322 47.1057 206.786C47.3235 207.25 47.6206 207.607 47.9971 207.855C48.3735 208.101 48.8008 208.224 49.279 208.224C49.7573 208.224 50.1846 208.101 50.561 207.855C50.9398 207.609 51.2381 207.254 51.4559 206.79C51.6737 206.323 51.7814 205.765 51.779 205.114ZM62.0313 208.75V201.477H66.2394V202.074H62.6954V204.812H65.9092V205.408H62.6954V208.75H62.0313ZM75.4504 202.074V201.477H80.7238V202.074H78.4191V208.75H77.7551V202.074H75.4504ZM91.483 208.75L89.4909 201.477H90.1656L91.8133 207.731H91.8701L93.5178 201.477H94.2849L95.9326 207.731H95.9894L97.6372 201.477H98.3154L96.3232 208.75H95.613L93.9262 202.582H93.8801L92.1933 208.75H91.483ZM106.96 208.75H106.264L108.91 201.477H109.62L112.265 208.75H111.569L109.29 202.34H109.24L106.96 208.75ZM107.461 205.962H111.069V206.559H107.461V205.962ZM121.512 208.75V201.477H123.859C124.375 201.477 124.806 201.571 125.152 201.758C125.5 201.942 125.761 202.199 125.937 202.528C126.114 202.855 126.203 203.23 126.203 203.654C126.203 204.078 126.114 204.452 125.937 204.776C125.761 205.101 125.501 205.354 125.155 205.536C124.81 205.719 124.381 205.81 123.87 205.81H121.87V205.202H123.852C124.231 205.202 124.546 205.14 124.797 205.014C125.05 204.889 125.238 204.71 125.361 204.478C125.487 204.246 125.549 203.971 125.549 203.654C125.549 203.337 125.487 203.06 125.361 202.823C125.236 202.584 125.046 202.399 124.793 202.269C124.542 202.139 124.225 202.074 123.841 202.074H122.176V208.75H121.512ZM124.718 205.469L126.508 208.75H125.741L123.969 205.469H124.718ZM135.82 208.75V201.477H140.039V202.074H136.484V204.812H139.815V205.408H136.484V208.153H140.11V208.75H135.82ZM49.0691 215.295C49.0288 214.891 48.8501 214.569 48.5328 214.33C48.2156 214.09 47.8167 213.971 47.3361 213.971C46.9976 213.971 46.6993 214.029 46.4412 214.145C46.1855 214.261 45.9843 214.422 45.8375 214.628C45.6931 214.831 45.6209 215.063 45.6209 215.324C45.6209 215.516 45.6623 215.684 45.7452 215.828C45.8281 215.973 45.9393 216.097 46.079 216.201C46.2211 216.303 46.3773 216.39 46.5478 216.464C46.7206 216.537 46.8946 216.599 47.0698 216.648L47.8368 216.869C48.0688 216.933 48.3008 217.014 48.5328 217.114C48.7649 217.213 48.9767 217.339 49.1685 217.49C49.3626 217.639 49.5177 217.823 49.6337 218.04C49.7521 218.256 49.8113 218.515 49.8113 218.818C49.8113 219.206 49.7106 219.556 49.5094 219.866C49.3082 220.176 49.0194 220.422 48.6429 220.604C48.2665 220.784 47.8155 220.874 47.29 220.874C46.7952 220.874 46.3655 220.793 46.0009 220.629C45.6363 220.464 45.3498 220.235 45.1415 219.944C44.9332 219.653 44.816 219.315 44.79 218.932H45.4718C45.4954 219.218 45.5901 219.461 45.7559 219.66C45.9216 219.859 46.137 220.01 46.4022 220.114C46.6673 220.216 46.9632 220.267 47.29 220.267C47.6522 220.267 47.9741 220.207 48.2559 220.086C48.54 219.963 48.7625 219.792 48.9235 219.575C49.0868 219.354 49.1685 219.099 49.1685 218.808C49.1685 218.561 49.1046 218.355 48.9767 218.19C48.8489 218.022 48.6702 217.881 48.4405 217.767C48.2132 217.653 47.9493 217.553 47.6486 217.465L46.7786 217.21C46.208 217.039 45.7653 216.804 45.4505 216.503C45.1356 216.202 44.9782 215.819 44.9782 215.352C44.9782 214.962 45.0823 214.618 45.2907 214.322C45.5014 214.024 45.7855 213.792 46.1429 213.626C46.5028 213.458 46.9064 213.374 47.3539 213.374C47.806 213.374 48.2061 213.457 48.5542 213.623C48.9022 213.789 49.178 214.017 49.3816 214.308C49.5875 214.597 49.6976 214.926 49.7118 215.295H49.0691ZM58.9689 214.074V213.477H64.2424V214.074H61.9377V220.75H61.2736V214.074H58.9689ZM78.5847 213.477H79.2488V218.293C79.2488 218.787 79.1328 219.23 78.9007 219.621C78.6687 220.009 78.3456 220.316 77.9313 220.54C77.5194 220.763 77.04 220.874 76.4931 220.874C75.9486 220.874 75.4692 220.762 75.0549 220.537C74.6406 220.312 74.3174 220.005 74.0854 219.617C73.8534 219.229 73.7374 218.787 73.7374 218.293V213.477H74.4015V218.246C74.4015 218.632 74.4879 218.977 74.6607 219.28C74.8335 219.58 75.0762 219.817 75.3887 219.99C75.7035 220.163 76.0717 220.249 76.4931 220.249C76.9145 220.249 77.2826 220.163 77.5975 219.99C77.9123 219.817 78.155 219.58 78.3255 219.28C78.4983 218.977 78.5847 218.632 78.5847 218.246V213.477ZM91.3095 220.75H89.1788V213.477H91.4373C92.131 213.477 92.724 213.622 93.2164 213.911C93.7112 214.199 94.09 214.614 94.3528 215.153C94.6156 215.693 94.747 216.341 94.747 217.096C94.747 217.858 94.612 218.513 94.3422 219.06C94.0746 219.604 93.684 220.022 93.1703 220.313C92.6589 220.604 92.0386 220.75 91.3095 220.75ZM89.8429 220.153H91.2704C91.8954 220.153 92.4186 220.03 92.84 219.784C93.2614 219.538 93.5775 219.186 93.7882 218.729C93.9989 218.272 94.1042 217.728 94.1042 217.096C94.1019 216.469 93.9977 215.929 93.7917 215.477C93.5881 215.024 93.2851 214.678 92.8826 214.436C92.4825 214.195 91.9877 214.074 91.3983 214.074H89.8429V220.153ZM105.021 213.477V220.75H104.357V213.477H105.021ZM120.917 217.114C120.917 217.871 120.782 218.531 120.512 219.092C120.242 219.65 119.87 220.084 119.397 220.391C118.926 220.697 118.383 220.849 117.77 220.849C117.157 220.849 116.614 220.697 116.14 220.391C115.669 220.084 115.299 219.65 115.029 219.092C114.761 218.531 114.627 217.871 114.627 217.114C114.627 216.356 114.761 215.698 115.029 215.139C115.299 214.578 115.67 214.145 116.144 213.839C116.617 213.532 117.159 213.378 117.77 213.378C118.383 213.378 118.926 213.532 119.397 213.839C119.87 214.145 120.242 214.578 120.512 215.139C120.782 215.698 120.917 216.356 120.917 217.114ZM120.27 217.114C120.27 216.463 120.161 215.905 119.944 215.441C119.726 214.975 119.429 214.618 119.052 214.372C118.676 214.126 118.248 214.003 117.77 214.003C117.294 214.003 116.868 214.126 116.492 214.372C116.115 214.618 115.817 214.973 115.597 215.438C115.379 215.902 115.27 216.46 115.27 217.114C115.27 217.765 115.379 218.322 115.597 218.786C115.815 219.25 116.112 219.607 116.488 219.855C116.865 220.101 117.292 220.224 117.77 220.224C118.248 220.224 118.676 220.101 119.052 219.855C119.431 219.609 119.729 219.254 119.947 218.79C120.165 218.323 120.273 217.765 120.27 217.114ZM134.471 215.295C134.431 214.891 134.252 214.569 133.935 214.33C133.618 214.09 133.219 213.971 132.738 213.971C132.4 213.971 132.102 214.029 131.844 214.145C131.588 214.261 131.387 214.422 131.24 214.628C131.095 214.831 131.023 215.063 131.023 215.324C131.023 215.516 131.065 215.684 131.148 215.828C131.23 215.973 131.342 216.097 131.481 216.201C131.623 216.303 131.78 216.39 131.95 216.464C132.123 216.537 132.297 216.599 132.472 216.648L133.239 216.869C133.471 216.933 133.703 217.014 133.935 217.114C134.167 217.213 134.379 217.339 134.571 217.49C134.765 217.639 134.92 217.823 135.036 218.04C135.154 218.256 135.214 218.515 135.214 218.818C135.214 219.206 135.113 219.556 134.912 219.866C134.711 220.176 134.422 220.422 134.045 220.604C133.669 220.784 133.218 220.874 132.692 220.874C132.198 220.874 131.768 220.793 131.403 220.629C131.039 220.464 130.752 220.235 130.544 219.944C130.336 219.653 130.218 219.315 130.192 218.932H130.874C130.898 219.218 130.992 219.461 131.158 219.66C131.324 219.859 131.539 220.01 131.805 220.114C132.07 220.216 132.366 220.267 132.692 220.267C133.055 220.267 133.376 220.207 133.658 220.086C133.942 219.963 134.165 219.792 134.326 219.575C134.489 219.354 134.571 219.099 134.571 218.808C134.571 218.561 134.507 218.355 134.379 218.19C134.251 218.022 134.073 217.881 133.843 217.767C133.616 217.653 133.352 217.553 133.051 217.465L132.181 217.21C131.61 217.039 131.168 216.804 130.853 216.503C130.538 216.202 130.381 215.819 130.381 215.352C130.381 214.962 130.485 214.618 130.693 214.322C130.904 214.024 131.188 213.792 131.545 213.626C131.905 213.458 132.309 213.374 132.756 213.374C133.208 213.374 133.608 213.457 133.956 213.623C134.305 213.789 134.58 214.017 134.784 214.308C134.99 214.597 135.1 214.926 135.114 215.295H134.471Z" fill="#534AB7"/>
<defs>
<linearGradient id="paint0_linear_11_81" x1="103.5" y1="-9.93162e-07" x2="152.741" y2="71.4786" gradientUnits="userSpaceOnUse">
<stop stop-color="#AFA9EC"/>
<stop offset="0.4" stop-color="#7B74D4"/>
<stop offset="1" stop-color="#534AB7"/>
</linearGradient>
<linearGradient id="paint1_linear_11_81" x1="90" y1="39.119" x2="166.132" y2="106.065" gradientUnits="userSpaceOnUse">
<stop stop-color="#6B63CC"/>
<stop offset="0.5" stop-color="#3D3890"/>
<stop offset="1" stop-color="#26215C"/>
</linearGradient>
<linearGradient id="paint2_linear_11_81" x1="90" y1="77.5" x2="131.828" y2="150.362" gradientUnits="userSpaceOnUse">
<stop stop-color="#534AB7"/>
<stop offset="0.6" stop-color="#26215C"/>
<stop offset="1" stop-color="#1A1A2E"/>
</linearGradient>
<linearGradient id="paint3_linear_11_81" x1="76.5" y1="77.5" x2="27.2592" y2="148.979" gradientUnits="userSpaceOnUse">
<stop stop-color="#3D3890"/>
<stop offset="0.6" stop-color="#26215C"/>
<stop offset="1" stop-color="#1A1A2E"/>
</linearGradient>
<linearGradient id="paint4_linear_11_81" x1="90" y1="39.119" x2="13.8683" y2="106.065" gradientUnits="userSpaceOnUse">
<stop stop-color="#534AB7"/>
<stop offset="0.5" stop-color="#3D3890"/>
<stop offset="1" stop-color="#26215C"/>
</linearGradient>
<linearGradient id="paint5_linear_11_81" x1="76.5" y1="-1.57058e-06" x2="27.2592" y2="71.4786" gradientUnits="userSpaceOnUse">
<stop stop-color="#C8C4F4"/>
<stop offset="0.5" stop-color="#8880DC"/>
<stop offset="1" stop-color="#534AB7"/>
</linearGradient>
<linearGradient id="paint6_linear_11_81" x1="22.5" y1="0" x2="22.5" y2="77.5" gradientUnits="userSpaceOnUse">
<stop stop-color="white" stop-opacity="0.25"/>
<stop offset="1" stop-color="white" stop-opacity="0"/>
</linearGradient>
<linearGradient id="paint7_linear_11_81" x1="90" y1="148" x2="90" y2="217" gradientUnits="userSpaceOnUse">
<stop stop-color="#534AB7"/>
<stop offset="0.394231" stop-color="#26215C"/>
<stop offset="1" stop-color="#1A1A2E"/>
</linearGradient>
</defs>
</svg>
