<svg width="180" height="223" viewBox="0 0 180 223" fill="none" xmlns="http://www.w3.org/2000/svg">
<path d="M90 0L157.5 39.119L90 77.5V0Z" fill="url(#paint0_linear_11_16)"/>
<path d="M157.5 39.119V115.881L90 77.5L157.5 39.119Z" fill="url(#paint1_linear_11_16)"/>
<path d="M157.5 115.881L90 155V77.5L157.5 115.881Z" fill="url(#paint2_linear_11_16)"/>
<path d="M90 155L22.5 115.881L90 77.5V155Z" fill="url(#paint3_linear_11_16)"/>
<path d="M22.5 115.881V39.119L90 77.5L22.5 115.881Z" fill="url(#paint4_linear_11_16)"/>
<path d="M22.5 39.119L90 0V77.5L22.5 39.119Z" fill="url(#paint5_linear_11_16)"/>
<path d="M22.5 39.119L90 0L157.5 39.119L90 77.5L22.5 39.119Z" fill="url(#paint6_linear_11_16)"/>
<path d="M39.8904 187.04L38.6304 187.55V171.59H42.6204V191H38.6304L22.9404 175.67L24.2004 175.16V191H20.2104V171.59H24.2004L39.8904 187.04ZM51.2414 182.9V187.67H66.2114V191H47.2514V171.59H66.1814V174.92H51.2414V179.75H63.4814V182.9H51.2414ZM70.308 191V171.59H81.498C84.098 171.59 86.068 172.03 87.408 172.91C88.768 173.77 89.448 175.06 89.448 176.78C89.448 177.88 89.178 178.75 88.638 179.39C88.098 180.01 87.328 180.47 86.328 180.77C85.348 181.07 84.188 181.26 82.848 181.34L82.968 181.13C83.948 181.15 84.868 181.22 85.728 181.34C86.608 181.46 87.378 181.68 88.038 182C88.698 182.32 89.218 182.77 89.598 183.35C89.978 183.91 90.168 184.65 90.168 185.57C90.168 186.77 89.848 187.77 89.208 188.57C88.568 189.35 87.678 189.94 86.538 190.34C85.398 190.74 84.078 190.96 82.578 191H70.308ZM74.298 187.7H82.158C83.418 187.7 84.388 187.5 85.068 187.1C85.748 186.68 86.088 186.02 86.088 185.12C86.088 184.46 85.888 183.98 85.488 183.68C85.088 183.38 84.558 183.2 83.898 183.14C83.238 183.06 82.528 183.02 81.768 183.02H74.298V187.7ZM74.298 179.81H81.348C82.608 179.81 83.578 179.63 84.258 179.27C84.938 178.89 85.278 178.25 85.278 177.35C85.278 176.45 84.938 175.82 84.258 175.46C83.578 175.08 82.678 174.89 81.558 174.89H74.298V179.81ZM111.536 182.42V171.59H115.526V182.84C115.526 184.12 115.336 185.24 114.956 186.2C114.596 187.16 114.076 187.97 113.396 188.63C112.716 189.29 111.916 189.83 110.996 190.25C110.096 190.65 109.106 190.94 108.026 191.12C106.966 191.3 105.846 191.39 104.666 191.39C103.446 191.39 102.286 191.3 101.186 191.12C100.086 190.94 99.0763 190.65 98.1563 190.25C97.2563 189.83 96.4763 189.29 95.8162 188.63C95.1563 187.97 94.6363 187.16 94.2563 186.2C93.8963 185.24 93.7163 184.12 93.7163 182.84V171.59H97.7063V182.42C97.7063 183.94 98.0063 185.1 98.6063 185.9C99.2063 186.68 100.026 187.22 101.066 187.52C102.126 187.8 103.326 187.94 104.666 187.94C105.966 187.94 107.126 187.8 108.146 187.52C109.186 187.22 110.006 186.68 110.606 185.9C111.226 185.1 111.536 183.94 111.536 182.42ZM124.132 171.59V187.67H137.032V191H120.142V171.59H124.132ZM143.768 186.77V183.44H156.608V186.77H143.768ZM138.938 191L148.058 171.59H152.378L161.588 191H157.238L149.258 173.51H151.178L143.258 191H138.938Z" fill="url(#paint7_linear_11_16)"/>
<path d="M36.1228 203.483C36.0825 203.078 35.9038 202.756 35.5866 202.517C35.2693 202.278 34.8704 202.158 34.3898 202.158C34.0513 202.158 33.753 202.216 33.4949 202.332C33.2393 202.448 33.038 202.609 32.8912 202.815C32.7468 203.019 32.6746 203.251 32.6746 203.511C32.6746 203.703 32.7161 203.871 32.7989 204.016C32.8818 204.16 32.993 204.284 33.1327 204.388C33.2748 204.49 33.431 204.578 33.6015 204.651C33.7743 204.725 33.9483 204.786 34.1235 204.836L34.8905 205.056C35.1225 205.12 35.3546 205.202 35.5866 205.301C35.8186 205.401 36.0305 205.526 36.2222 205.678C36.4163 205.827 36.5714 206.01 36.6874 206.228C36.8058 206.443 36.865 206.703 36.865 207.006C36.865 207.394 36.7644 207.743 36.5631 208.053C36.3619 208.363 36.0731 208.61 35.6966 208.792C35.3202 208.972 34.8692 209.062 34.3437 209.062C33.8489 209.062 33.4192 208.98 33.0546 208.817C32.69 208.651 32.4036 208.423 32.1952 208.131C31.9869 207.84 31.8697 207.503 31.8437 207.119H32.5255C32.5492 207.406 32.6439 207.648 32.8096 207.847C32.9753 208.046 33.1907 208.198 33.4559 208.302C33.721 208.404 34.017 208.455 34.3437 208.455C34.7059 208.455 35.0278 208.394 35.3096 208.273C35.5937 208.15 35.8162 207.98 35.9772 207.762C36.1405 207.542 36.2222 207.286 36.2222 206.995C36.2222 206.749 36.1583 206.543 36.0305 206.377C35.9026 206.209 35.7239 206.068 35.4942 205.955C35.267 205.841 35.003 205.74 34.7023 205.653L33.8323 205.397C33.2617 205.227 32.819 204.991 32.5042 204.69C32.1893 204.39 32.0319 204.006 32.0319 203.54C32.0319 203.149 32.136 202.806 32.3444 202.51C32.5551 202.212 32.8392 201.98 33.1966 201.814C33.5565 201.646 33.9601 201.562 34.4076 201.562C34.8598 201.562 35.2599 201.645 35.6079 201.81C35.9559 201.976 36.2317 202.205 36.4353 202.496C36.6412 202.785 36.7513 203.114 36.7655 203.483H36.1228ZM52.4253 205.301C52.4253 206.059 52.2904 206.718 52.0205 207.279C51.7506 207.838 51.3789 208.271 50.9055 208.579C50.4343 208.884 49.8922 209.037 49.279 209.037C48.6659 209.037 48.1225 208.884 47.6491 208.579C47.1779 208.271 46.8074 207.838 46.5376 207.279C46.27 206.718 46.1363 206.059 46.1363 205.301C46.1363 204.544 46.27 203.885 46.5376 203.327C46.8074 202.766 47.1791 202.332 47.6526 202.027C48.1261 201.719 48.6682 201.565 49.279 201.565C49.8922 201.565 50.4343 201.719 50.9055 202.027C51.3789 202.332 51.7506 202.766 52.0205 203.327C52.2904 203.885 52.4253 204.544 52.4253 205.301ZM51.779 205.301C51.779 204.65 51.6701 204.093 51.4523 203.629C51.2345 203.162 50.9374 202.806 50.561 202.56C50.1846 202.313 49.7573 202.19 49.279 202.19C48.8032 202.19 48.377 202.313 48.0006 202.56C47.6242 202.806 47.3259 203.161 47.1057 203.625C46.8879 204.089 46.779 204.648 46.779 205.301C46.779 205.952 46.8879 206.51 47.1057 206.974C47.3235 207.438 47.6206 207.794 47.9971 208.043C48.3735 208.289 48.8008 208.412 49.279 208.412C49.7573 208.412 50.1846 208.289 50.561 208.043C50.9398 207.796 51.2381 207.441 51.4559 206.977C51.6737 206.511 51.7814 205.952 51.779 205.301ZM62.0313 208.938V201.665H66.2394V202.261H62.6954V204.999H65.9092V205.596H62.6954V208.938H62.0313ZM75.4504 202.261V201.665H80.7238V202.261H78.4191V208.938H77.7551V202.261H75.4504ZM91.483 208.938L89.4909 201.665H90.1656L91.8133 207.918H91.8701L93.5178 201.665H94.2849L95.9326 207.918H95.9894L97.6372 201.665H98.3154L96.3232 208.938H95.613L93.9262 202.769H93.8801L92.1933 208.938H91.483ZM106.96 208.938H106.264L108.91 201.665H109.62L112.265 208.938H111.569L109.29 202.528H109.24L106.96 208.938ZM107.461 206.15H111.069V206.746H107.461V206.15ZM121.512 208.938V201.665H123.859C124.375 201.665 124.806 201.758 125.152 201.945C125.5 202.13 125.761 202.387 125.937 202.716C126.114 203.043 126.203 203.418 126.203 203.842C126.203 204.265 126.114 204.639 125.937 204.964C125.761 205.288 125.501 205.541 125.155 205.724C124.81 205.906 124.381 205.997 123.87 205.997H121.87V205.39H123.852C124.231 205.39 124.546 205.327 124.797 205.202C125.05 205.076 125.238 204.897 125.361 204.665C125.487 204.433 125.549 204.159 125.549 203.842C125.549 203.524 125.487 203.247 125.361 203.011C125.236 202.772 125.046 202.587 124.793 202.457C124.542 202.326 124.225 202.261 123.841 202.261H122.176V208.938H121.512ZM124.718 205.656L126.508 208.938H125.741L123.969 205.656H124.718ZM135.82 208.938V201.665H140.039V202.261H136.484V204.999H139.815V205.596H136.484V208.341H140.11V208.938H135.82ZM49.0691 215.483C49.0288 215.078 48.8501 214.756 48.5328 214.517C48.2156 214.278 47.8167 214.158 47.3361 214.158C46.9976 214.158 46.6993 214.216 46.4412 214.332C46.1855 214.448 45.9843 214.609 45.8375 214.815C45.6931 215.019 45.6209 215.251 45.6209 215.511C45.6209 215.703 45.6623 215.871 45.7452 216.016C45.8281 216.16 45.9393 216.284 46.079 216.388C46.2211 216.49 46.3773 216.578 46.5478 216.651C46.7206 216.725 46.8946 216.786 47.0698 216.836L47.8368 217.056C48.0688 217.12 48.3008 217.202 48.5328 217.301C48.7649 217.401 48.9767 217.526 49.1685 217.678C49.3626 217.827 49.5177 218.01 49.6337 218.228C49.7521 218.443 49.8113 218.703 49.8113 219.006C49.8113 219.394 49.7106 219.743 49.5094 220.053C49.3082 220.363 49.0194 220.61 48.6429 220.792C48.2665 220.972 47.8155 221.062 47.29 221.062C46.7952 221.062 46.3655 220.98 46.0009 220.817C45.6363 220.651 45.3498 220.423 45.1415 220.131C44.9332 219.84 44.816 219.503 44.79 219.119H45.4718C45.4954 219.406 45.5901 219.648 45.7559 219.847C45.9216 220.046 46.137 220.198 46.4022 220.302C46.6673 220.404 46.9632 220.455 47.29 220.455C47.6522 220.455 47.9741 220.394 48.2559 220.273C48.54 220.15 48.7625 219.98 48.9235 219.762C49.0868 219.542 49.1685 219.286 49.1685 218.995C49.1685 218.749 49.1046 218.543 48.9767 218.377C48.8489 218.209 48.6702 218.068 48.4405 217.955C48.2132 217.841 47.9493 217.74 47.6486 217.653L46.7786 217.397C46.208 217.227 45.7653 216.991 45.4505 216.69C45.1356 216.39 44.9782 216.006 44.9782 215.54C44.9782 215.149 45.0823 214.806 45.2907 214.51C45.5014 214.212 45.7855 213.98 46.1429 213.814C46.5028 213.646 46.9064 213.562 47.3539 213.562C47.806 213.562 48.2061 213.645 48.5542 213.81C48.9022 213.976 49.178 214.205 49.3816 214.496C49.5875 214.785 49.6976 215.114 49.7118 215.483H49.0691ZM58.9689 214.261V213.665H64.2424V214.261H61.9377V220.938H61.2736V214.261H58.9689ZM78.5847 213.665H79.2488V218.48C79.2488 218.975 79.1328 219.418 78.9007 219.808C78.6687 220.196 78.3456 220.503 77.9313 220.728C77.5194 220.951 77.04 221.062 76.4931 221.062C75.9486 221.062 75.4692 220.949 75.0549 220.724C74.6406 220.5 74.3174 220.193 74.0854 219.805C73.8534 219.416 73.7374 218.975 73.7374 218.48V213.665H74.4015V218.434C74.4015 218.82 74.4879 219.164 74.6607 219.467C74.8335 219.768 75.0762 220.005 75.3887 220.178C75.7035 220.35 76.0717 220.437 76.4931 220.437C76.9145 220.437 77.2826 220.35 77.5975 220.178C77.9123 220.005 78.155 219.768 78.3255 219.467C78.4983 219.164 78.5847 218.82 78.5847 218.434V213.665ZM91.3095 220.938H89.1788V213.665H91.4373C92.131 213.665 92.724 213.809 93.2164 214.098C93.7112 214.387 94.09 214.801 94.3528 215.341C94.6156 215.881 94.747 216.528 94.747 217.283C94.747 218.046 94.612 218.7 94.3422 219.247C94.0746 219.792 93.684 220.21 93.1703 220.501C92.6589 220.792 92.0386 220.938 91.3095 220.938ZM89.8429 220.341H91.2704C91.8954 220.341 92.4186 220.218 92.84 219.972C93.2614 219.725 93.5775 219.374 93.7882 218.917C93.9989 218.46 94.1042 217.915 94.1042 217.283C94.1019 216.656 93.9977 216.116 93.7917 215.664C93.5881 215.212 93.2851 214.865 92.8826 214.624C92.4825 214.382 91.9877 214.261 91.3983 214.261H89.8429V220.341ZM105.021 213.665V220.938H104.357V213.665H105.021ZM120.917 217.301C120.917 218.059 120.782 218.718 120.512 219.279C120.242 219.838 119.87 220.271 119.397 220.579C118.926 220.884 118.383 221.037 117.77 221.037C117.157 221.037 116.614 220.884 116.14 220.579C115.669 220.271 115.299 219.838 115.029 219.279C114.761 218.718 114.627 218.059 114.627 217.301C114.627 216.544 114.761 215.885 115.029 215.327C115.299 214.766 115.67 214.332 116.144 214.027C116.617 213.719 117.159 213.565 117.77 213.565C118.383 213.565 118.926 213.719 119.397 214.027C119.87 214.332 120.242 214.766 120.512 215.327C120.782 215.885 120.917 216.544 120.917 217.301ZM120.27 217.301C120.27 216.65 120.161 216.093 119.944 215.629C119.726 215.162 119.429 214.806 119.052 214.56C118.676 214.313 118.248 214.19 117.77 214.19C117.294 214.19 116.868 214.313 116.492 214.56C116.115 214.806 115.817 215.161 115.597 215.625C115.379 216.089 115.27 216.648 115.27 217.301C115.27 217.952 115.379 218.51 115.597 218.974C115.815 219.438 116.112 219.794 116.488 220.043C116.865 220.289 117.292 220.412 117.77 220.412C118.248 220.412 118.676 220.289 119.052 220.043C119.431 219.796 119.729 219.441 119.947 218.977C120.165 218.511 120.273 217.952 120.27 217.301ZM134.471 215.483C134.431 215.078 134.252 214.756 133.935 214.517C133.618 214.278 133.219 214.158 132.738 214.158C132.4 214.158 132.102 214.216 131.844 214.332C131.588 214.448 131.387 214.609 131.24 214.815C131.095 215.019 131.023 215.251 131.023 215.511C131.023 215.703 131.065 215.871 131.148 216.016C131.23 216.16 131.342 216.284 131.481 216.388C131.623 216.49 131.78 216.578 131.95 216.651C132.123 216.725 132.297 216.786 132.472 216.836L133.239 217.056C133.471 217.12 133.703 217.202 133.935 217.301C134.167 217.401 134.379 217.526 134.571 217.678C134.765 217.827 134.92 218.01 135.036 218.228C135.154 218.443 135.214 218.703 135.214 219.006C135.214 219.394 135.113 219.743 134.912 220.053C134.711 220.363 134.422 220.61 134.045 220.792C133.669 220.972 133.218 221.062 132.692 221.062C132.198 221.062 131.768 220.98 131.403 220.817C131.039 220.651 130.752 220.423 130.544 220.131C130.336 219.84 130.218 219.503 130.192 219.119H130.874C130.898 219.406 130.992 219.648 131.158 219.847C131.324 220.046 131.539 220.198 131.805 220.302C132.07 220.404 132.366 220.455 132.692 220.455C133.055 220.455 133.376 220.394 133.658 220.273C133.942 220.15 134.165 219.98 134.326 219.762C134.489 219.542 134.571 219.286 134.571 218.995C134.571 218.749 134.507 218.543 134.379 218.377C134.251 218.209 134.073 218.068 133.843 217.955C133.616 217.841 133.352 217.74 133.051 217.653L132.181 217.397C131.61 217.227 131.168 216.991 130.853 216.69C130.538 216.39 130.381 216.006 130.381 215.54C130.381 215.149 130.485 214.806 130.693 214.51C130.904 214.212 131.188 213.98 131.545 213.814C131.905 213.646 132.309 213.562 132.756 213.562C133.208 213.562 133.608 213.645 133.956 213.81C134.305 213.976 134.58 214.205 134.784 214.496C134.99 214.785 135.1 215.114 135.114 215.483H134.471Z" fill="#AFA9EC"/>
<defs>
<linearGradient id="paint0_linear_11_16" x1="103.5" y1="-9.93162e-07" x2="152.741" y2="71.4786" gradientUnits="userSpaceOnUse">
<stop stop-color="white"/>
<stop offset="0.25" stop-color="#D4D0F8"/>
<stop offset="0.6" stop-color="#7B74D4"/>
<stop offset="1" stop-color="#534AB7"/>
</linearGradient>
<linearGradient id="paint1_linear_11_16" x1="90" y1="39.119" x2="166.132" y2="106.065" gradientUnits="userSpaceOnUse">
<stop stop-color="#7B74D4"/>
<stop offset="0.3" stop-color="#534AB7"/>
<stop offset="1" stop-color="#1A1A2E"/>
</linearGradient>
<linearGradient id="paint2_linear_11_16" x1="90" y1="77.5" x2="131.828" y2="150.362" gradientUnits="userSpaceOnUse">
<stop stop-color="#534AB7"/>
<stop offset="0.5" stop-color="#26215C"/>
<stop offset="1" stop-color="#0A0F2E"/>
</linearGradient>
<linearGradient id="paint3_linear_11_16" x1="76.5" y1="77.5" x2="27.2592" y2="148.979" gradientUnits="userSpaceOnUse">
<stop stop-color="#26215C"/>
<stop offset="0.6" stop-color="#0F0F1A"/>
<stop offset="1" stop-color="#09090F"/>
</linearGradient>
<linearGradient id="paint4_linear_11_16" x1="90" y1="39.119" x2="13.8683" y2="106.065" gradientUnits="userSpaceOnUse">
<stop stop-color="#3D3890"/>
<stop offset="0.4" stop-color="#1A1A2E"/>
<stop offset="1" stop-color="#0A0F2E"/>
</linearGradient>
<linearGradient id="paint5_linear_11_16" x1="76.5" y1="-1.57058e-06" x2="27.2592" y2="71.4786" gradientUnits="userSpaceOnUse">
<stop stop-color="#E8E8F0"/>
<stop offset="0.3" stop-color="#AFA9EC"/>
<stop offset="0.7" stop-color="#6B63CC"/>
<stop offset="1" stop-color="#534AB7"/>
</linearGradient>
<linearGradient id="paint6_linear_11_16" x1="22.5" y1="0" x2="22.5" y2="77.5" gradientUnits="userSpaceOnUse">
<stop stop-color="white" stop-opacity="0.15"/>
<stop offset="1" stop-color="white" stop-opacity="0"/>
</linearGradient>
<linearGradient id="paint7_linear_11_16" x1="90.125" y1="162.937" x2="90.125" y2="198.937" gradientUnits="userSpaceOnUse">
<stop offset="0.461538" stop-color="#E8E8F0"/>
<stop offset="1" stop-color="#85858A"/>
</linearGradient>
</defs>
</svg>
