<svg width="321" height="155" viewBox="0 0 321 155" fill="none" xmlns="http://www.w3.org/2000/svg">
<path d="M68.5 0L136 39.119L68.5 77.5V0Z" fill="url(#paint0_linear_31_213)"/>
<path d="M136 39.119V115.881L68.5 77.5L136 39.119Z" fill="url(#paint1_linear_31_213)"/>
<path d="M136 115.881L68.5 155V77.5L136 115.881Z" fill="url(#paint2_linear_31_213)"/>
<path d="M68.5 155L1 115.881L68.5 77.5V155Z" fill="url(#paint3_linear_31_213)"/>
<path d="M1 115.881V39.119L68.5 77.5L1 115.881Z" fill="url(#paint4_linear_31_213)"/>
<path d="M1 39.119L68.5 0V77.5L1 39.119Z" fill="url(#paint5_linear_31_213)"/>
<path d="M1 39.119L68.5 0L136 39.119L68.5 77.5L1 39.119Z" fill="url(#paint6_linear_31_213)"/>
<path d="M180.209 84.512L178.781 85.09V67.002H183.303V89H178.781L160.999 71.626L162.427 71.048V89H157.905V67.002H162.427L180.209 84.512ZM193.074 79.82V85.226H210.04V89H188.552V67.002H210.006V70.776H193.074V76.25H206.946V79.82H193.074ZM214.682 89V67.002H227.364C230.311 67.002 232.544 67.5007 234.062 68.498C235.604 69.4727 236.374 70.9347 236.374 72.884C236.374 74.1307 236.068 75.1167 235.456 75.842C234.844 76.5447 233.972 77.066 232.838 77.406C231.728 77.746 230.413 77.9613 228.894 78.052L229.03 77.814C230.141 77.8367 231.184 77.916 232.158 78.052C233.156 78.188 234.028 78.4373 234.776 78.8C235.524 79.1627 236.114 79.6727 236.544 80.33C236.975 80.9647 237.19 81.8033 237.19 82.846C237.19 84.206 236.828 85.3393 236.102 86.246C235.377 87.13 234.368 87.7987 233.076 88.252C231.784 88.7053 230.288 88.9547 228.588 89H214.682ZM219.204 85.26H228.112C229.54 85.26 230.64 85.0333 231.41 84.58C232.181 84.104 232.566 83.356 232.566 82.336C232.566 81.588 232.34 81.044 231.886 80.704C231.433 80.364 230.832 80.16 230.084 80.092C229.336 80.0013 228.532 79.956 227.67 79.956H219.204V85.26ZM219.204 76.318H227.194C228.622 76.318 229.722 76.114 230.492 75.706C231.263 75.2753 231.648 74.55 231.648 73.53C231.648 72.51 231.263 71.796 230.492 71.388C229.722 70.9573 228.702 70.742 227.432 70.742H219.204V76.318ZM261.408 79.276V67.002H265.93V79.752C265.93 81.2027 265.714 82.472 265.284 83.56C264.876 84.648 264.286 85.566 263.516 86.314C262.745 87.062 261.838 87.674 260.796 88.15C259.776 88.6033 258.654 88.932 257.43 89.136C256.228 89.34 254.959 89.442 253.622 89.442C252.239 89.442 250.924 89.34 249.678 89.136C248.431 88.932 247.286 88.6033 246.244 88.15C245.224 87.674 244.34 87.062 243.592 86.314C242.844 85.566 242.254 84.648 241.824 83.56C241.416 82.472 241.212 81.2027 241.212 79.752V67.002H245.734V79.276C245.734 80.9987 246.074 82.3133 246.754 83.22C247.434 84.104 248.363 84.716 249.542 85.056C250.743 85.3733 252.103 85.532 253.622 85.532C255.095 85.532 256.41 85.3733 257.566 85.056C258.744 84.716 259.674 84.104 260.354 83.22C261.056 82.3133 261.408 80.9987 261.408 79.276ZM275.683 67.002V85.226H290.303V89H271.161V67.002H275.683ZM297.937 84.206V80.432H312.489V84.206H297.937ZM292.463 89L302.799 67.002H307.695L318.133 89H313.203L304.159 69.178H306.335L297.359 89H292.463Z" fill="url(#paint7_linear_31_213)"/>
<defs>
<linearGradient id="paint0_linear_31_213" x1="82" y1="-9.93162e-07" x2="131.241" y2="71.4786" gradientUnits="userSpaceOnUse">
<stop stop-color="#AFA9EC"/>
<stop offset="0.4" stop-color="#7B74D4"/>
<stop offset="1" stop-color="#534AB7"/>
</linearGradient>
<linearGradient id="paint1_linear_31_213" x1="68.5" y1="39.119" x2="144.632" y2="106.065" gradientUnits="userSpaceOnUse">
<stop stop-color="#6B63CC"/>
<stop offset="0.5" stop-color="#3D3890"/>
<stop offset="1" stop-color="#26215C"/>
</linearGradient>
<linearGradient id="paint2_linear_31_213" x1="68.5" y1="77.5" x2="110.328" y2="150.362" gradientUnits="userSpaceOnUse">
<stop stop-color="#534AB7"/>
<stop offset="0.6" stop-color="#26215C"/>
<stop offset="1" stop-color="#1A1A2E"/>
</linearGradient>
<linearGradient id="paint3_linear_31_213" x1="55" y1="77.5" x2="5.75921" y2="148.979" gradientUnits="userSpaceOnUse">
<stop stop-color="#3D3890"/>
<stop offset="0.6" stop-color="#26215C"/>
<stop offset="1" stop-color="#1A1A2E"/>
</linearGradient>
<linearGradient id="paint4_linear_31_213" x1="68.5" y1="39.119" x2="-7.63169" y2="106.065" gradientUnits="userSpaceOnUse">
<stop stop-color="#534AB7"/>
<stop offset="0.5" stop-color="#3D3890"/>
<stop offset="1" stop-color="#26215C"/>
</linearGradient>
<linearGradient id="paint5_linear_31_213" x1="55" y1="-1.57058e-06" x2="5.75921" y2="71.4786" gradientUnits="userSpaceOnUse">
<stop stop-color="#C8C4F4"/>
<stop offset="0.5" stop-color="#8880DC"/>
<stop offset="1" stop-color="#534AB7"/>
</linearGradient>
<linearGradient id="paint6_linear_31_213" x1="1" y1="0" x2="1" y2="77.5" gradientUnits="userSpaceOnUse">
<stop stop-color="white" stop-opacity="0.25"/>
<stop offset="1" stop-color="white" stop-opacity="0"/>
</linearGradient>
<linearGradient id="paint7_linear_31_213" x1="237" y1="39.9167" x2="237" y2="118.5" gradientUnits="userSpaceOnUse">
<stop stop-color="#534AB7"/>
<stop offset="0.394231" stop-color="#26215C"/>
<stop offset="1" stop-color="#1A1A2E"/>
</linearGradient>
</defs>
</svg>
