<svg width="300" height="155" viewBox="0 0 300 155" fill="none" xmlns="http://www.w3.org/2000/svg">
<path d="M69.5 0L137 39.119L69.5 77.5V0Z" fill="url(#paint0_linear_6_54)"/>
<path d="M137 39.119V115.881L69.5 77.5L137 39.119Z" fill="url(#paint1_linear_6_54)"/>
<path d="M137 115.881L69.5 155V77.5L137 115.881Z" fill="url(#paint2_linear_6_54)"/>
<path d="M69.5 155L2 115.881L69.5 77.5V155Z" fill="url(#paint3_linear_6_54)"/>
<path d="M2 115.881V39.119L69.5 77.5L2 115.881Z" fill="url(#paint4_linear_6_54)"/>
<path d="M2 39.119L69.5 0V77.5L2 39.119Z" fill="url(#paint5_linear_6_54)"/>
<path d="M2 39.119L69.5 0L137 39.119L69.5 77.5L2 39.119Z" fill="url(#paint6_linear_6_54)"/>
<path d="M170.89 71.165L169.63 71.675V55.715H173.62V75.125H169.63L153.94 59.795L155.2 59.285V75.125H151.21V55.715H155.2L170.89 71.165ZM182.241 67.025V71.795H197.211V75.125H178.251V55.715H197.181V59.045H182.241V63.875H194.481V67.025H182.241ZM201.308 75.125V55.715H212.498C215.098 55.715 217.068 56.155 218.408 57.035C219.768 57.895 220.448 59.185 220.448 60.905C220.448 62.005 220.178 62.875 219.638 63.515C219.098 64.135 218.328 64.595 217.328 64.895C216.348 65.195 215.188 65.385 213.848 65.465L213.968 65.255C214.948 65.275 215.868 65.345 216.728 65.465C217.608 65.585 218.378 65.805 219.038 66.125C219.698 66.445 220.218 66.895 220.598 67.475C220.978 68.035 221.168 68.775 221.168 69.695C221.168 70.895 220.848 71.895 220.208 72.695C219.568 73.475 218.678 74.065 217.538 74.465C216.398 74.865 215.078 75.085 213.578 75.125H201.308ZM205.298 71.825H213.158C214.418 71.825 215.388 71.625 216.068 71.225C216.748 70.805 217.088 70.145 217.088 69.245C217.088 68.585 216.888 68.105 216.488 67.805C216.088 67.505 215.558 67.325 214.898 67.265C214.238 67.185 213.528 67.145 212.768 67.145H205.298V71.825ZM205.298 63.935H212.348C213.608 63.935 214.578 63.755 215.258 63.395C215.938 63.015 216.278 62.375 216.278 61.475C216.278 60.575 215.938 59.945 215.258 59.585C214.578 59.205 213.678 59.015 212.558 59.015H205.298V63.935ZM242.536 66.545V55.715H246.526V66.965C246.526 68.245 246.336 69.365 245.956 70.325C245.596 71.285 245.076 72.095 244.396 72.755C243.716 73.415 242.916 73.955 241.996 74.375C241.096 74.775 240.106 75.065 239.026 75.245C237.966 75.425 236.846 75.515 235.666 75.515C234.446 75.515 233.286 75.425 232.186 75.245C231.086 75.065 230.076 74.775 229.156 74.375C228.256 73.955 227.476 73.415 226.816 72.755C226.156 72.095 225.636 71.285 225.256 70.325C224.896 69.365 224.716 68.245 224.716 66.965V55.715H228.706V66.545C228.706 68.065 229.006 69.225 229.606 70.025C230.206 70.805 231.026 71.345 232.066 71.645C233.126 71.925 234.326 72.065 235.666 72.065C236.966 72.065 238.126 71.925 239.146 71.645C240.186 71.345 241.006 70.805 241.606 70.025C242.226 69.225 242.536 68.065 242.536 66.545ZM255.132 55.715V71.795H268.032V75.125H251.142V55.715H255.132ZM274.768 70.895V67.565H287.608V70.895H274.768ZM269.938 75.125L279.058 55.715H283.378L292.588 75.125H288.238L280.258 57.635H282.178L274.258 75.125H269.938Z" fill="url(#paint7_linear_6_54)"/>
<path d="M167.123 88.4205C167.083 88.0156 166.904 87.6937 166.587 87.4545C166.269 87.2154 165.87 87.0959 165.39 87.0959C165.051 87.0959 164.753 87.1539 164.495 87.2699C164.239 87.3859 164.038 87.5469 163.891 87.7528C163.747 87.9564 163.675 88.1884 163.675 88.4489C163.675 88.6406 163.716 88.8087 163.799 88.9531C163.882 89.0975 163.993 89.2218 164.133 89.326C164.275 89.4278 164.431 89.5154 164.601 89.5888C164.774 89.6622 164.948 89.7237 165.123 89.7734L165.891 89.9936C166.123 90.0575 166.355 90.1392 166.587 90.2386C166.819 90.3381 167.03 90.4635 167.222 90.6151C167.416 90.7642 167.571 90.9477 167.687 91.1655C167.806 91.3809 167.865 91.6402 167.865 91.9432C167.865 92.3314 167.764 92.6806 167.563 92.9908C167.362 93.3009 167.073 93.5471 166.697 93.7294C166.32 93.9093 165.869 93.9993 165.344 93.9993C164.849 93.9993 164.419 93.9176 164.055 93.7543C163.69 93.5885 163.404 93.3601 163.195 93.0689C162.987 92.7777 162.87 92.4403 162.844 92.0568H163.525C163.549 92.3433 163.644 92.5859 163.81 92.7848C163.975 92.9837 164.191 93.1352 164.456 93.2393C164.721 93.3411 165.017 93.392 165.344 93.392C165.706 93.392 166.028 93.3317 166.31 93.2109C166.594 93.0878 166.816 92.9174 166.977 92.6996C167.141 92.4794 167.222 92.2237 167.222 91.9325C167.222 91.6863 167.158 91.4804 167.03 91.3146C166.903 91.1465 166.724 91.0057 166.494 90.892C166.267 90.7784 166.003 90.6778 165.702 90.5902L164.832 90.3345C164.262 90.1641 163.819 89.9285 163.504 89.6278C163.189 89.3272 163.032 88.9437 163.032 88.4773C163.032 88.0866 163.136 87.7434 163.344 87.4474C163.555 87.1491 163.839 86.9171 164.197 86.7514C164.556 86.5833 164.96 86.4993 165.408 86.4993C165.86 86.4993 166.26 86.5821 166.608 86.7479C166.956 86.9136 167.232 87.142 167.435 87.4332C167.641 87.7221 167.751 88.0511 167.766 88.4205H167.123ZM183.425 90.2386C183.425 90.9962 183.29 91.6555 183.021 92.2166C182.751 92.7753 182.379 93.2086 181.905 93.5163C181.434 93.8217 180.892 93.9744 180.279 93.9744C179.666 93.9744 179.123 93.8217 178.649 93.5163C178.178 93.2086 177.807 92.7753 177.538 92.2166C177.27 91.6555 177.136 90.9962 177.136 90.2386C177.136 89.4811 177.27 88.8229 177.538 88.2642C177.807 87.7031 178.179 87.2699 178.653 86.9645C179.126 86.6567 179.668 86.5028 180.279 86.5028C180.892 86.5028 181.434 86.6567 181.905 86.9645C182.379 87.2699 182.751 87.7031 183.021 88.2642C183.29 88.8229 183.425 89.4811 183.425 90.2386ZM182.779 90.2386C182.779 89.5876 182.67 89.0301 182.452 88.5661C182.235 88.0997 181.937 87.7434 181.561 87.4972C181.185 87.2509 180.757 87.1278 180.279 87.1278C179.803 87.1278 179.377 87.2509 179.001 87.4972C178.624 87.7434 178.326 88.0985 178.106 88.5625C177.888 89.0265 177.779 89.5852 177.779 90.2386C177.779 90.8897 177.888 91.4472 178.106 91.9112C178.324 92.3752 178.621 92.7315 178.997 92.9801C179.373 93.2263 179.801 93.3494 180.279 93.3494C180.757 93.3494 181.185 93.2263 181.561 92.9801C181.94 92.7339 182.238 92.3788 182.456 91.9148C182.674 91.4484 182.781 90.8897 182.779 90.2386ZM193.031 93.875V86.6023H197.239V87.1989H193.695V89.9368H196.909V90.5334H193.695V93.875H193.031ZM206.45 87.1989V86.6023H211.724V87.1989H209.419V93.875H208.755V87.1989H206.45ZM222.483 93.875L220.491 86.6023H221.166L222.813 92.8558H222.87L224.518 86.6023H225.285L226.933 92.8558H226.989L228.637 86.6023H229.315L227.323 93.875H226.613L224.926 87.7067H224.88L223.193 93.875H222.483ZM237.96 93.875H237.264L239.91 86.6023H240.62L243.265 93.875H242.569L240.29 87.4652H240.24L237.96 93.875ZM238.461 91.0874H242.069V91.6839H238.461V91.0874ZM252.512 93.875V86.6023H254.859C255.375 86.6023 255.806 86.6958 256.152 86.8828C256.5 87.0675 256.761 87.3243 256.937 87.6534C257.114 87.9801 257.203 88.3554 257.203 88.7791C257.203 89.2029 257.114 89.5769 256.937 89.9013C256.761 90.2256 256.501 90.4789 256.155 90.6612C255.81 90.8435 255.381 90.9347 254.87 90.9347H252.87V90.3274H254.852C255.231 90.3274 255.546 90.2647 255.797 90.1392C256.05 90.0137 256.238 89.835 256.361 89.603C256.487 89.371 256.549 89.0964 256.549 88.7791C256.549 88.4619 256.487 88.1849 256.361 87.9482C256.236 87.709 256.046 87.5244 255.793 87.3942C255.542 87.264 255.225 87.1989 254.841 87.1989H253.176V93.875H252.512ZM255.718 90.5938L257.508 93.875H256.741L254.969 90.5938H255.718ZM266.82 93.875V86.6023H271.039V87.1989H267.484V89.9368H270.815V90.5334H267.484V93.2784H271.11V93.875H266.82ZM180.069 100.42C180.029 100.016 179.85 99.6937 179.533 99.4545C179.216 99.2154 178.817 99.0959 178.336 99.0959C177.998 99.0959 177.699 99.1539 177.441 99.2699C177.186 99.3859 176.984 99.5469 176.838 99.7528C176.693 99.9564 176.621 100.188 176.621 100.449C176.621 100.641 176.662 100.809 176.745 100.953C176.828 101.098 176.939 101.222 177.079 101.326C177.221 101.428 177.377 101.515 177.548 101.589C177.721 101.662 177.895 101.724 178.07 101.773L178.837 101.994C179.069 102.058 179.301 102.139 179.533 102.239C179.765 102.338 179.977 102.464 180.169 102.615C180.363 102.764 180.518 102.948 180.634 103.165C180.752 103.381 180.811 103.64 180.811 103.943C180.811 104.331 180.711 104.681 180.509 104.991C180.308 105.301 180.019 105.547 179.643 105.729C179.267 105.909 178.816 105.999 178.29 105.999C177.795 105.999 177.365 105.918 177.001 105.754C176.636 105.589 176.35 105.36 176.142 105.069C175.933 104.778 175.816 104.44 175.79 104.057H176.472C176.495 104.343 176.59 104.586 176.756 104.785C176.922 104.984 177.137 105.135 177.402 105.239C177.667 105.341 177.963 105.392 178.29 105.392C178.652 105.392 178.974 105.332 179.256 105.211C179.54 105.088 179.762 104.917 179.923 104.7C180.087 104.479 180.169 104.224 180.169 103.933C180.169 103.686 180.105 103.48 179.977 103.315C179.849 103.147 179.67 103.006 179.441 102.892C179.213 102.778 178.949 102.678 178.649 102.59L177.779 102.335C177.208 102.164 176.765 101.929 176.45 101.628C176.136 101.327 175.978 100.944 175.978 100.477C175.978 100.087 176.082 99.7434 176.291 99.4474C176.501 99.1491 176.785 98.9171 177.143 98.7514C177.503 98.5833 177.906 98.4993 178.354 98.4993C178.806 98.4993 179.206 98.5821 179.554 98.7479C179.902 98.9136 180.178 99.142 180.382 99.4332C180.588 99.7221 180.698 100.051 180.712 100.42H180.069ZM189.969 99.1989V98.6023H195.242V99.1989H192.938V105.875H192.274V99.1989H189.969ZM209.585 98.6023H210.249V103.418C210.249 103.912 210.133 104.355 209.901 104.746C209.669 105.134 209.346 105.441 208.931 105.665C208.519 105.888 208.04 105.999 207.493 105.999C206.949 105.999 206.469 105.887 206.055 105.662C205.641 105.437 205.317 105.13 205.085 104.742C204.853 104.354 204.737 103.912 204.737 103.418V98.6023H205.401V103.371C205.401 103.757 205.488 104.102 205.661 104.405C205.834 104.705 206.076 104.942 206.389 105.115C206.704 105.288 207.072 105.374 207.493 105.374C207.914 105.374 208.283 105.288 208.597 105.115C208.912 104.942 209.155 104.705 209.325 104.405C209.498 104.102 209.585 103.757 209.585 103.371V98.6023ZM222.309 105.875H220.179V98.6023H222.437C223.131 98.6023 223.724 98.7467 224.216 99.0355C224.711 99.3243 225.09 99.7386 225.353 100.278C225.616 100.818 225.747 101.466 225.747 102.221C225.747 102.983 225.612 103.638 225.342 104.185C225.075 104.729 224.684 105.147 224.17 105.438C223.659 105.729 223.039 105.875 222.309 105.875ZM220.843 105.278H222.27C222.895 105.278 223.419 105.155 223.84 104.909C224.261 104.663 224.577 104.311 224.788 103.854C224.999 103.397 225.104 102.853 225.104 102.221C225.102 101.594 224.998 101.054 224.792 100.602C224.588 100.149 224.285 99.8026 223.883 99.5611C223.483 99.3196 222.988 99.1989 222.398 99.1989H220.843V105.278ZM236.021 98.6023V105.875H235.357V98.6023H236.021ZM251.917 102.239C251.917 102.996 251.782 103.656 251.512 104.217C251.242 104.775 250.87 105.209 250.397 105.516C249.926 105.822 249.383 105.974 248.77 105.974C248.157 105.974 247.614 105.822 247.14 105.516C246.669 105.209 246.299 104.775 246.029 104.217C245.761 103.656 245.627 102.996 245.627 102.239C245.627 101.481 245.761 100.823 246.029 100.264C246.299 99.7031 246.67 99.2699 247.144 98.9645C247.617 98.6567 248.159 98.5028 248.77 98.5028C249.383 98.5028 249.926 98.6567 250.397 98.9645C250.87 99.2699 251.242 99.7031 251.512 100.264C251.782 100.823 251.917 101.481 251.917 102.239ZM251.27 102.239C251.27 101.588 251.161 101.03 250.944 100.566C250.726 100.1 250.429 99.7434 250.052 99.4972C249.676 99.2509 249.248 99.1278 248.77 99.1278C248.294 99.1278 247.868 99.2509 247.492 99.4972C247.115 99.7434 246.817 100.098 246.597 100.562C246.379 101.027 246.27 101.585 246.27 102.239C246.27 102.89 246.379 103.447 246.597 103.911C246.815 104.375 247.112 104.732 247.488 104.98C247.865 105.226 248.292 105.349 248.77 105.349C249.248 105.349 249.676 105.226 250.052 104.98C250.431 104.734 250.729 104.379 250.947 103.915C251.165 103.448 251.273 102.89 251.27 102.239ZM265.471 100.42C265.431 100.016 265.252 99.6937 264.935 99.4545C264.618 99.2154 264.219 99.0959 263.738 99.0959C263.4 99.0959 263.102 99.1539 262.844 99.2699C262.588 99.3859 262.387 99.5469 262.24 99.7528C262.095 99.9564 262.023 100.188 262.023 100.449C262.023 100.641 262.065 100.809 262.148 100.953C262.23 101.098 262.342 101.222 262.481 101.326C262.623 101.428 262.78 101.515 262.95 101.589C263.123 101.662 263.297 101.724 263.472 101.773L264.239 101.994C264.471 102.058 264.703 102.139 264.935 102.239C265.167 102.338 265.379 102.464 265.571 102.615C265.765 102.764 265.92 102.948 266.036 103.165C266.154 103.381 266.214 103.64 266.214 103.943C266.214 104.331 266.113 104.681 265.912 104.991C265.711 105.301 265.422 105.547 265.045 105.729C264.669 105.909 264.218 105.999 263.692 105.999C263.198 105.999 262.768 105.918 262.403 105.754C262.039 105.589 261.752 105.36 261.544 105.069C261.336 104.778 261.218 104.44 261.192 104.057H261.874C261.898 104.343 261.992 104.586 262.158 104.785C262.324 104.984 262.539 105.135 262.805 105.239C263.07 105.341 263.366 105.392 263.692 105.392C264.055 105.392 264.376 105.332 264.658 105.211C264.942 105.088 265.165 104.917 265.326 104.7C265.489 104.479 265.571 104.224 265.571 103.933C265.571 103.686 265.507 103.48 265.379 103.315C265.251 103.147 265.073 103.006 264.843 102.892C264.616 102.778 264.352 102.678 264.051 102.59L263.181 102.335C262.61 102.164 262.168 101.929 261.853 101.628C261.538 101.327 261.381 100.944 261.381 100.477C261.381 100.087 261.485 99.7434 261.693 99.4474C261.904 99.1491 262.188 98.9171 262.545 98.7514C262.905 98.5833 263.309 98.4993 263.756 98.4993C264.208 98.4993 264.608 98.5821 264.956 98.7479C265.305 98.9136 265.58 99.142 265.784 99.4332C265.99 99.7221 266.1 100.051 266.114 100.42H265.471Z" fill="#534AB7"/>
<defs>
<linearGradient id="paint0_linear_6_54" x1="83" y1="-9.93162e-07" x2="132.241" y2="71.4786" gradientUnits="userSpaceOnUse">
<stop stop-color="#AFA9EC"/>
<stop offset="0.4" stop-color="#7B74D4"/>
<stop offset="1" stop-color="#534AB7"/>
</linearGradient>
<linearGradient id="paint1_linear_6_54" x1="69.5" y1="39.119" x2="145.632" y2="106.065" gradientUnits="userSpaceOnUse">
<stop stop-color="#6B63CC"/>
<stop offset="0.5" stop-color="#3D3890"/>
<stop offset="1" stop-color="#26215C"/>
</linearGradient>
<linearGradient id="paint2_linear_6_54" x1="69.5" y1="77.5" x2="111.328" y2="150.362" gradientUnits="userSpaceOnUse">
<stop stop-color="#534AB7"/>
<stop offset="0.6" stop-color="#26215C"/>
<stop offset="1" stop-color="#1A1A2E"/>
</linearGradient>
<linearGradient id="paint3_linear_6_54" x1="56" y1="77.5" x2="6.75921" y2="148.979" gradientUnits="userSpaceOnUse">
<stop stop-color="#3D3890"/>
<stop offset="0.6" stop-color="#26215C"/>
<stop offset="1" stop-color="#1A1A2E"/>
</linearGradient>
<linearGradient id="paint4_linear_6_54" x1="69.5" y1="39.119" x2="-6.63169" y2="106.065" gradientUnits="userSpaceOnUse">
<stop stop-color="#534AB7"/>
<stop offset="0.5" stop-color="#3D3890"/>
<stop offset="1" stop-color="#26215C"/>
</linearGradient>
<linearGradient id="paint5_linear_6_54" x1="56" y1="-1.57058e-06" x2="6.75921" y2="71.4786" gradientUnits="userSpaceOnUse">
<stop stop-color="#C8C4F4"/>
<stop offset="0.5" stop-color="#8880DC"/>
<stop offset="1" stop-color="#534AB7"/>
</linearGradient>
<linearGradient id="paint6_linear_6_54" x1="2" y1="0" x2="2" y2="77.5" gradientUnits="userSpaceOnUse">
<stop stop-color="white" stop-opacity="0.25"/>
<stop offset="1" stop-color="white" stop-opacity="0"/>
</linearGradient>
<linearGradient id="paint7_linear_6_54" x1="221" y1="32.125" x2="221" y2="101.125" gradientUnits="userSpaceOnUse">
<stop stop-color="#534AB7"/>
<stop offset="0.394231" stop-color="#26215C"/>
<stop offset="1" stop-color="#1A1A2E"/>
</linearGradient>
</defs>
</svg>
