<svg width="301" height="155" viewBox="0 0 301 155" fill="none" xmlns="http://www.w3.org/2000/svg">
<path d="M67.5 0L135 39.1191L67.5 77.5V0Z" fill="url(#paint0_linear_6_46)"/>
<path d="M135 39.119V115.881L67.5 77.5L135 39.119Z" fill="url(#paint1_linear_6_46)"/>
<path d="M135 115.881L67.5 155V77.5L135 115.881Z" fill="url(#paint2_linear_6_46)"/>
<path d="M67.5 155L0 115.881L67.5 77.5V155Z" fill="url(#paint3_linear_6_46)"/>
<path d="M0 115.881V39.119L67.5 77.5L0 115.881Z" fill="url(#paint4_linear_6_46)"/>
<path d="M0 39.1191L67.5 0V77.5L0 39.1191Z" fill="url(#paint5_linear_6_46)"/>
<path d="M0 39.1191L67.5 0L135 39.1191L67.5 77.5L0 39.1191Z" fill="url(#paint6_linear_6_46)"/>
<path d="M177.765 71.1025L176.505 71.6125V55.6525H180.495V75.0625H176.505L160.815 59.7325L162.075 59.2225V75.0625H158.085V55.6525H162.075L177.765 71.1025ZM189.116 66.9625V71.7325H204.086V75.0625H185.126V55.6525H204.056V58.9825H189.116V63.8125H201.356V66.9625H189.116ZM208.183 75.0625V55.6525H219.373C221.973 55.6525 223.943 56.0925 225.283 56.9725C226.643 57.8325 227.323 59.1225 227.323 60.8425C227.323 61.9425 227.053 62.8125 226.513 63.4525C225.973 64.0725 225.203 64.5325 224.203 64.8325C223.223 65.1325 222.063 65.3225 220.723 65.4025L220.843 65.1925C221.823 65.2125 222.743 65.2825 223.603 65.4025C224.483 65.5225 225.253 65.7425 225.913 66.0625C226.573 66.3825 227.093 66.8325 227.473 67.4125C227.853 67.9725 228.043 68.7125 228.043 69.6325C228.043 70.8325 227.723 71.8325 227.083 72.6325C226.443 73.4125 225.553 74.0025 224.413 74.4025C223.273 74.8025 221.953 75.0225 220.453 75.0625H208.183ZM212.173 71.7625H220.033C221.293 71.7625 222.263 71.5625 222.943 71.1625C223.623 70.7425 223.963 70.0825 223.963 69.1825C223.963 68.5225 223.763 68.0425 223.363 67.7425C222.963 67.4425 222.433 67.2625 221.773 67.2025C221.113 67.1225 220.403 67.0825 219.643 67.0825H212.173V71.7625ZM212.173 63.8725H219.223C220.483 63.8725 221.453 63.6925 222.133 63.3325C222.813 62.9525 223.153 62.3125 223.153 61.4125C223.153 60.5125 222.813 59.8825 222.133 59.5225C221.453 59.1425 220.553 58.9525 219.433 58.9525H212.173V63.8725ZM249.411 66.4825V55.6525H253.401V66.9025C253.401 68.1825 253.211 69.3025 252.831 70.2625C252.471 71.2225 251.951 72.0325 251.271 72.6925C250.591 73.3525 249.791 73.8925 248.871 74.3125C247.971 74.7125 246.981 75.0025 245.901 75.1825C244.841 75.3625 243.721 75.4525 242.541 75.4525C241.321 75.4525 240.161 75.3625 239.061 75.1825C237.961 75.0025 236.951 74.7125 236.031 74.3125C235.131 73.8925 234.351 73.3525 233.691 72.6925C233.031 72.0325 232.511 71.2225 232.131 70.2625C231.771 69.3025 231.591 68.1825 231.591 66.9025V55.6525H235.581V66.4825C235.581 68.0025 235.881 69.1625 236.481 69.9625C237.081 70.7425 237.901 71.2825 238.941 71.5825C240.001 71.8625 241.201 72.0025 242.541 72.0025C243.841 72.0025 245.001 71.8625 246.021 71.5825C247.061 71.2825 247.881 70.7425 248.481 69.9625C249.101 69.1625 249.411 68.0025 249.411 66.4825ZM262.007 55.6525V71.7325H274.907V75.0625H258.017V55.6525H262.007ZM281.643 70.8325V67.5025H294.483V70.8325H281.643ZM276.813 75.0625L285.933 55.6525H290.253L299.463 75.0625H295.113L287.133 57.5725H289.053L281.133 75.0625H276.813Z" fill="url(#paint7_linear_6_46)"/>
<path d="M173.623 88.483C173.583 88.0781 173.404 87.7562 173.087 87.517C172.769 87.2779 172.37 87.1584 171.89 87.1584C171.551 87.1584 171.253 87.2164 170.995 87.3324C170.739 87.4484 170.538 87.6094 170.391 87.8153C170.247 88.0189 170.175 88.2509 170.175 88.5114C170.175 88.7031 170.216 88.8712 170.299 89.0156C170.382 89.16 170.493 89.2843 170.633 89.3885C170.775 89.4903 170.931 89.5779 171.101 89.6513C171.274 89.7247 171.448 89.7862 171.623 89.8359L172.391 90.0561C172.623 90.12 172.855 90.2017 173.087 90.3011C173.319 90.4006 173.53 90.526 173.722 90.6776C173.916 90.8267 174.071 91.0102 174.187 91.228C174.306 91.4434 174.365 91.7027 174.365 92.0057C174.365 92.3939 174.264 92.7431 174.063 93.0533C173.862 93.3634 173.573 93.6096 173.197 93.7919C172.82 93.9718 172.369 94.0618 171.844 94.0618C171.349 94.0618 170.919 93.9801 170.555 93.8168C170.19 93.651 169.904 93.4226 169.695 93.1314C169.487 92.8402 169.37 92.5028 169.344 92.1193H170.025C170.049 92.4058 170.144 92.6484 170.31 92.8473C170.475 93.0462 170.691 93.1977 170.956 93.3018C171.221 93.4036 171.517 93.4545 171.844 93.4545C172.206 93.4545 172.528 93.3942 172.81 93.2734C173.094 93.1503 173.316 92.9799 173.477 92.7621C173.641 92.5419 173.722 92.2862 173.722 91.995C173.722 91.7488 173.658 91.5429 173.53 91.3771C173.403 91.209 173.224 91.0682 172.994 90.9545C172.767 90.8409 172.503 90.7403 172.202 90.6527L171.332 90.397C170.762 90.2266 170.319 89.991 170.004 89.6903C169.689 89.3897 169.532 89.0062 169.532 88.5398C169.532 88.1491 169.636 87.8059 169.844 87.5099C170.055 87.2116 170.339 86.9796 170.697 86.8139C171.056 86.6458 171.46 86.5618 171.908 86.5618C172.36 86.5618 172.76 86.6446 173.108 86.8104C173.456 86.9761 173.732 87.2045 173.935 87.4957C174.141 87.7846 174.251 88.1136 174.266 88.483H173.623ZM189.925 90.3011C189.925 91.0587 189.79 91.718 189.521 92.2791C189.251 92.8378 188.879 93.2711 188.405 93.5788C187.934 93.8842 187.392 94.0369 186.779 94.0369C186.166 94.0369 185.623 93.8842 185.149 93.5788C184.678 93.2711 184.307 92.8378 184.038 92.2791C183.77 91.718 183.636 91.0587 183.636 90.3011C183.636 89.5436 183.77 88.8854 184.038 88.3267C184.307 87.7656 184.679 87.3324 185.153 87.027C185.626 86.7192 186.168 86.5653 186.779 86.5653C187.392 86.5653 187.934 86.7192 188.405 87.027C188.879 87.3324 189.251 87.7656 189.521 88.3267C189.79 88.8854 189.925 89.5436 189.925 90.3011ZM189.279 90.3011C189.279 89.6501 189.17 89.0926 188.952 88.6286C188.735 88.1622 188.437 87.8059 188.061 87.5597C187.685 87.3134 187.257 87.1903 186.779 87.1903C186.303 87.1903 185.877 87.3134 185.501 87.5597C185.124 87.8059 184.826 88.161 184.606 88.625C184.388 89.089 184.279 89.6477 184.279 90.3011C184.279 90.9522 184.388 91.5097 184.606 91.9737C184.824 92.4377 185.121 92.794 185.497 93.0426C185.873 93.2888 186.301 93.4119 186.779 93.4119C187.257 93.4119 187.685 93.2888 188.061 93.0426C188.44 92.7964 188.738 92.4413 188.956 91.9773C189.174 91.5109 189.281 90.9522 189.279 90.3011ZM199.531 93.9375V86.6648H203.739V87.2614H200.195V89.9993H203.409V90.5959H200.195V93.9375H199.531ZM212.95 87.2614V86.6648H218.224V87.2614H215.919V93.9375H215.255V87.2614H212.95ZM228.983 93.9375L226.991 86.6648H227.666L229.313 92.9183H229.37L231.018 86.6648H231.785L233.433 92.9183H233.489L235.137 86.6648H235.815L233.823 93.9375H233.113L231.426 87.7692H231.38L229.693 93.9375H228.983ZM244.46 93.9375H243.764L246.41 86.6648H247.12L249.765 93.9375H249.069L246.79 87.5277H246.74L244.46 93.9375ZM244.961 91.1499H248.569V91.7464H244.961V91.1499ZM259.012 93.9375V86.6648H261.359C261.875 86.6648 262.306 86.7583 262.652 86.9453C263 87.13 263.261 87.3868 263.437 87.7159C263.614 88.0426 263.703 88.4179 263.703 88.8416C263.703 89.2654 263.614 89.6394 263.437 89.9638C263.261 90.2881 263.001 90.5414 262.655 90.7237C262.31 90.906 261.881 90.9972 261.37 90.9972H259.37V90.3899H261.352C261.731 90.3899 262.046 90.3272 262.297 90.2017C262.55 90.0762 262.738 89.8975 262.861 89.6655C262.987 89.4335 263.049 89.1589 263.049 88.8416C263.049 88.5244 262.987 88.2474 262.861 88.0107C262.736 87.7715 262.546 87.5869 262.293 87.4567C262.042 87.3265 261.725 87.2614 261.341 87.2614H259.676V93.9375H259.012ZM262.218 90.6562L264.008 93.9375H263.241L261.469 90.6562H262.218ZM273.32 93.9375V86.6648H277.539V87.2614H273.984V89.9993H277.315V90.5959H273.984V93.3409H277.61V93.9375H273.32ZM186.569 100.483C186.529 100.078 186.35 99.7562 186.033 99.517C185.716 99.2779 185.317 99.1584 184.836 99.1584C184.498 99.1584 184.199 99.2164 183.941 99.3324C183.686 99.4484 183.484 99.6094 183.338 99.8153C183.193 100.019 183.121 100.251 183.121 100.511C183.121 100.703 183.162 100.871 183.245 101.016C183.328 101.16 183.439 101.284 183.579 101.388C183.721 101.49 183.877 101.578 184.048 101.651C184.221 101.725 184.395 101.786 184.57 101.836L185.337 102.056C185.569 102.12 185.801 102.202 186.033 102.301C186.265 102.401 186.477 102.526 186.669 102.678C186.863 102.827 187.018 103.01 187.134 103.228C187.252 103.443 187.311 103.703 187.311 104.006C187.311 104.394 187.211 104.743 187.009 105.053C186.808 105.363 186.519 105.61 186.143 105.792C185.767 105.972 185.316 106.062 184.79 106.062C184.295 106.062 183.865 105.98 183.501 105.817C183.136 105.651 182.85 105.423 182.642 105.131C182.433 104.84 182.316 104.503 182.29 104.119H182.972C182.995 104.406 183.09 104.648 183.256 104.847C183.422 105.046 183.637 105.198 183.902 105.302C184.167 105.404 184.463 105.455 184.79 105.455C185.152 105.455 185.474 105.394 185.756 105.273C186.04 105.15 186.262 104.98 186.423 104.762C186.587 104.542 186.669 104.286 186.669 103.995C186.669 103.749 186.605 103.543 186.477 103.377C186.349 103.209 186.17 103.068 185.941 102.955C185.713 102.841 185.449 102.74 185.149 102.653L184.279 102.397C183.708 102.227 183.265 101.991 182.95 101.69C182.636 101.39 182.478 101.006 182.478 100.54C182.478 100.149 182.582 99.8059 182.791 99.5099C183.001 99.2116 183.285 98.9796 183.643 98.8139C184.003 98.6458 184.406 98.5618 184.854 98.5618C185.306 98.5618 185.706 98.6446 186.054 98.8104C186.402 98.9761 186.678 99.2045 186.882 99.4957C187.088 99.7846 187.198 100.114 187.212 100.483H186.569ZM196.469 99.2614V98.6648H201.742V99.2614H199.438V105.938H198.774V99.2614H196.469ZM216.085 98.6648H216.749V103.48C216.749 103.975 216.633 104.418 216.401 104.808C216.169 105.196 215.846 105.503 215.431 105.728C215.019 105.951 214.54 106.062 213.993 106.062C213.449 106.062 212.969 105.949 212.555 105.724C212.141 105.5 211.817 105.193 211.585 104.805C211.353 104.416 211.237 103.975 211.237 103.48V98.6648H211.901V103.434C211.901 103.82 211.988 104.164 212.161 104.467C212.334 104.768 212.576 105.005 212.889 105.178C213.204 105.35 213.572 105.437 213.993 105.437C214.414 105.437 214.783 105.35 215.097 105.178C215.412 105.005 215.655 104.768 215.825 104.467C215.998 104.164 216.085 103.82 216.085 103.434V98.6648ZM228.809 105.938H226.679V98.6648H228.937C229.631 98.6648 230.224 98.8092 230.716 99.098C231.211 99.3868 231.59 99.8011 231.853 100.341C232.116 100.881 232.247 101.528 232.247 102.283C232.247 103.046 232.112 103.7 231.842 104.247C231.575 104.792 231.184 105.21 230.67 105.501C230.159 105.792 229.539 105.938 228.809 105.938ZM227.343 105.341H228.77C229.395 105.341 229.919 105.218 230.34 104.972C230.761 104.725 231.077 104.374 231.288 103.917C231.499 103.46 231.604 102.915 231.604 102.283C231.602 101.656 231.498 101.116 231.292 100.664C231.088 100.212 230.785 99.8651 230.383 99.6236C229.983 99.3821 229.488 99.2614 228.898 99.2614H227.343V105.341ZM242.521 98.6648V105.938H241.857V98.6648H242.521ZM258.417 102.301C258.417 103.059 258.282 103.718 258.012 104.279C257.742 104.838 257.37 105.271 256.897 105.579C256.426 105.884 255.883 106.037 255.27 106.037C254.657 106.037 254.114 105.884 253.64 105.579C253.169 105.271 252.799 104.838 252.529 104.279C252.261 103.718 252.127 103.059 252.127 102.301C252.127 101.544 252.261 100.885 252.529 100.327C252.799 99.7656 253.17 99.3324 253.644 99.027C254.117 98.7192 254.659 98.5653 255.27 98.5653C255.883 98.5653 256.426 98.7192 256.897 99.027C257.37 99.3324 257.742 99.7656 258.012 100.327C258.282 100.885 258.417 101.544 258.417 102.301ZM257.77 102.301C257.77 101.65 257.661 101.093 257.444 100.629C257.226 100.162 256.929 99.8059 256.552 99.5597C256.176 99.3134 255.748 99.1903 255.27 99.1903C254.794 99.1903 254.368 99.3134 253.992 99.5597C253.615 99.8059 253.317 100.161 253.097 100.625C252.879 101.089 252.77 101.648 252.77 102.301C252.77 102.952 252.879 103.51 253.097 103.974C253.315 104.438 253.612 104.794 253.988 105.043C254.365 105.289 254.792 105.412 255.27 105.412C255.748 105.412 256.176 105.289 256.552 105.043C256.931 104.796 257.229 104.441 257.447 103.977C257.665 103.511 257.773 102.952 257.77 102.301ZM271.971 100.483C271.931 100.078 271.752 99.7562 271.435 99.517C271.118 99.2779 270.719 99.1584 270.238 99.1584C269.9 99.1584 269.602 99.2164 269.344 99.3324C269.088 99.4484 268.887 99.6094 268.74 99.8153C268.595 100.019 268.523 100.251 268.523 100.511C268.523 100.703 268.565 100.871 268.648 101.016C268.73 101.16 268.842 101.284 268.981 101.388C269.123 101.49 269.28 101.578 269.45 101.651C269.623 101.725 269.797 101.786 269.972 101.836L270.739 102.056C270.971 102.12 271.203 102.202 271.435 102.301C271.667 102.401 271.879 102.526 272.071 102.678C272.265 102.827 272.42 103.01 272.536 103.228C272.654 103.443 272.714 103.703 272.714 104.006C272.714 104.394 272.613 104.743 272.412 105.053C272.211 105.363 271.922 105.61 271.545 105.792C271.169 105.972 270.718 106.062 270.192 106.062C269.698 106.062 269.268 105.98 268.903 105.817C268.539 105.651 268.252 105.423 268.044 105.131C267.836 104.84 267.718 104.503 267.692 104.119H268.374C268.398 104.406 268.492 104.648 268.658 104.847C268.824 105.046 269.039 105.198 269.305 105.302C269.57 105.404 269.866 105.455 270.192 105.455C270.555 105.455 270.876 105.394 271.158 105.273C271.442 105.15 271.665 104.98 271.826 104.762C271.989 104.542 272.071 104.286 272.071 103.995C272.071 103.749 272.007 103.543 271.879 103.377C271.751 103.209 271.573 103.068 271.343 102.955C271.116 102.841 270.852 102.74 270.551 102.653L269.681 102.397C269.11 102.227 268.668 101.991 268.353 101.69C268.038 101.39 267.881 101.006 267.881 100.54C267.881 100.149 267.985 99.8059 268.193 99.5099C268.404 99.2116 268.688 98.9796 269.045 98.8139C269.405 98.6458 269.809 98.5618 270.256 98.5618C270.708 98.5618 271.108 98.6446 271.456 98.8104C271.805 98.9761 272.08 99.2045 272.284 99.4957C272.49 99.7846 272.6 100.114 272.614 100.483H271.971Z" fill="#AFA9EC"/>
<defs>
<linearGradient id="paint0_linear_6_46" x1="81" y1="-9.93163e-07" x2="130.241" y2="71.4786" gradientUnits="userSpaceOnUse">
<stop stop-color="white"/>
<stop offset="0.25" stop-color="#D4D0F8"/>
<stop offset="0.6" stop-color="#7B74D4"/>
<stop offset="1" stop-color="#534AB7"/>
</linearGradient>
<linearGradient id="paint1_linear_6_46" x1="67.5" y1="39.119" x2="143.632" y2="106.065" gradientUnits="userSpaceOnUse">
<stop stop-color="#7B74D4"/>
<stop offset="0.3" stop-color="#534AB7"/>
<stop offset="1" stop-color="#1A1A2E"/>
</linearGradient>
<linearGradient id="paint2_linear_6_46" x1="67.5" y1="77.5" x2="109.328" y2="150.362" gradientUnits="userSpaceOnUse">
<stop stop-color="#534AB7"/>
<stop offset="0.5" stop-color="#26215C"/>
<stop offset="1" stop-color="#0A0F2E"/>
</linearGradient>
<linearGradient id="paint3_linear_6_46" x1="54" y1="77.5" x2="4.7592" y2="148.979" gradientUnits="userSpaceOnUse">
<stop stop-color="#26215C"/>
<stop offset="0.6" stop-color="#0F0F1A"/>
<stop offset="1" stop-color="#09090F"/>
</linearGradient>
<linearGradient id="paint4_linear_6_46" x1="67.5" y1="39.119" x2="-8.6317" y2="106.065" gradientUnits="userSpaceOnUse">
<stop stop-color="#3D3890"/>
<stop offset="0.4" stop-color="#1A1A2E"/>
<stop offset="1" stop-color="#0A0F2E"/>
</linearGradient>
<linearGradient id="paint5_linear_6_46" x1="54" y1="-1.57058e-06" x2="4.7592" y2="71.4786" gradientUnits="userSpaceOnUse">
<stop stop-color="#E8E8F0"/>
<stop offset="0.3" stop-color="#AFA9EC"/>
<stop offset="0.7" stop-color="#6B63CC"/>
<stop offset="1" stop-color="#534AB7"/>
</linearGradient>
<linearGradient id="paint6_linear_6_46" x1="0" y1="0" x2="0" y2="77.5" gradientUnits="userSpaceOnUse">
<stop stop-color="white" stop-opacity="0.15"/>
<stop offset="0.5" stop-color="white" stop-opacity="0.05"/>
<stop offset="1" stop-color="white" stop-opacity="0"/>
</linearGradient>
<linearGradient id="paint7_linear_6_46" x1="228" y1="47" x2="228" y2="83" gradientUnits="userSpaceOnUse">
<stop offset="0.461538" stop-color="#E8E8F0"/>
<stop offset="1" stop-color="#85858A"/>
</linearGradient>
</defs>
</svg>
